<?xml version="1.0" encoding="UTF-8"?>
<!DOCTYPE svg PUBLIC "-//W3C//DTD SVG 1.1//EN" "http://www.w3.org/Graphics/SVG/1.1/DTD/svg11.dtd">
<!-- Creator: CorelDRAW 2018 (64-Bit) -->
<svg xmlns="http://www.w3.org/2000/svg" xml:space="preserve" width="2.44882in" height="2.05921in" version="1.1" style="shape-rendering:geometricPrecision; text-rendering:geometricPrecision; image-rendering:optimizeQuality; fill-rule:evenodd; clip-rule:evenodd"
viewBox="0 0 734.9 617.98"
 xmlns:xlink="http://www.w3.org/1999/xlink">
 <defs>
  <style type="text/css">
   <![CDATA[
    .fil1 {fill:#B0E1F4;fill-rule:nonzero}
    .fil0 {fill:#4EC0EB;fill-rule:nonzero}
   ]]>
  </style>
 </defs>
 <g id="Layer_x0020_1">
  <metadata id="CorelCorpID_0Corel-Layer"/>
  <path class="fil0" d="M521.74 154.25c-0.04,0 -0.13,0 -0.17,0 0.04,-1.05 0.17,-2.08 0.17,-3.14 0,-83.46 -67.65,-151.12 -151.11,-151.12 -83.46,0 -151.12,67.66 -151.12,151.12 0,0.1 0.02,0.2 0.02,0.29 -65.46,3.04 -117.65,56.92 -117.65,123.14 0,68.17 55.26,123.44 123.43,123.44l296.43 0c67.32,0 121.88,-54.56 121.88,-121.87 0,-67.3 -54.56,-121.86 -121.88,-121.86z"/>
  <path class="fil1" d="M558.34 472.76l-372.21 0c-8.67,0 -15.7,-7.04 -15.7,-15.71 0,-8.67 7.04,-15.71 15.7,-15.71l372.21 0c8.67,0 15.71,7.04 15.71,15.71 0,8.67 -7.04,15.71 -15.71,15.71z"/>
  <path class="fil1" d="M719.23 472.76l-79.07 0c-8.67,0 -15.71,-7.04 -15.71,-15.71 0,-8.67 7.04,-15.71 15.71,-15.71l79.07 0c8.67,0 15.67,7.04 15.67,15.71 0,8.67 -7,15.71 -15.67,15.71z"/>
  <path class="fil1" d="M703.68 617.98l-582.42 0c-8.67,0 -15.7,-7.04 -15.7,-15.67 0,-8.67 7.04,-15.71 15.7,-15.71l582.42 0c8.67,0 15.67,7.04 15.67,15.71 0,8.63 -7,15.67 -15.67,15.67z"/>
  <path class="fil1" d="M452.68 545.37l-436.98 0c-8.67,0 -15.7,-7.04 -15.7,-15.71 0,-8.67 7.03,-15.71 15.7,-15.71l436.98 0c8.67,0 15.71,7.04 15.71,15.71 0,8.67 -7.04,15.71 -15.71,15.71z"/>
  <path class="fil1" d="M669.88 545.37l-127.88 0c-8.67,0 -15.67,-7.04 -15.67,-15.71 0,-8.67 7,-15.71 15.67,-15.71l127.88 0c8.67,0 15.71,7.04 15.71,15.71 0,8.67 -7.04,15.71 -15.71,15.71z"/>
 </g>
</svg>
