<?xml version="1.0" encoding="UTF-8"?>
<!DOCTYPE svg PUBLIC "-//W3C//DTD SVG 1.1//EN" "http://www.w3.org/Graphics/SVG/1.1/DTD/svg11.dtd">
<!-- Creator: CorelDRAW 2018 (64-Bit) -->
<svg xmlns="http://www.w3.org/2000/svg" xml:space="preserve" width="24.3525in" height="21.2356in" version="1.1" style="shape-rendering:geometricPrecision; text-rendering:geometricPrecision; image-rendering:optimizeQuality; fill-rule:evenodd; clip-rule:evenodd"
viewBox="0 0 18823.1 16413.91"
 xmlns:xlink="http://www.w3.org/1999/xlink">
 <defs>
  <style type="text/css">
   <![CDATA[
    .fil2 {fill:#263138;fill-rule:nonzero}
    .fil8 {fill:#445964;fill-rule:nonzero}
    .fil1 {fill:#DFDFDF;fill-rule:nonzero}
    .fil3 {fill:#E8505B;fill-rule:nonzero}
    .fil10 {fill:#EB996E;fill-rule:nonzero}
    .fil0 {fill:#EBEBEB;fill-rule:nonzero}
    .fil5 {fill:#F4F4F4;fill-rule:nonzero}
    .fil7 {fill:#F9F9F9;fill-rule:nonzero}
    .fil9 {fill:#FFBD9C;fill-rule:nonzero}
    .fil4 {fill:black;fill-rule:nonzero;fill-opacity:0.200000}
    .fil6 {fill:black;fill-rule:nonzero;fill-opacity:0.400000}
   ]]>
  </style>
 </defs>
 <g id="Layer_x0020_1">
  <metadata id="CorelCorpID_0Corel-Layer"/>
  <g id="_2391825726592">
   <path class="fil0" d="M3724.87 13414.01c-4.12,4.32 -159.39,-137.08 -346.74,-315.78 -187.42,-178.79 -335.96,-327.17 -331.82,-331.5 4.13,-4.31 159.35,137.06 346.77,315.83 187.35,178.71 335.92,327.13 331.8,331.46z"/>
   <path class="fil0" d="M6318.31 15753.78c354.42,-616.25 152.87,-1356.51 -156.77,-1961.59 -51.67,-101.01 -91.2,-214.52 -182.32,-281.65 -91.13,-67.09 -233.95,-75.16 -305.54,11.25 -59.37,71.67 -50.94,175.94 -59.16,269.29 -10.91,124.21 -57.52,244.62 -132.75,342.97 -49.44,64.6 -120.56,123.31 -201.79,118.04 -111.47,-7.27 -179.35,-124.68 -226.66,-227.08 -88.15,-190.84 -176.33,-381.67 -264.47,-572.45 -47.3,-102.37 -95.95,-206.75 -173.19,-288.73 -77.25,-81.97 -189.68,-139.03 -299.55,-120.64 -109.92,18.43 -203.7,130.81 -177.28,240.35 10.98,45.59 39.74,84.78 56.79,128.48 17.08,43.71 19.35,99.87 -15.36,130.57 -35.12,31.11 -89.56,21.34 -134.11,5.8 -153.78,-53.59 -287.63,-152.8 -416.46,-253.46 -128.84,-100.67 -257.18,-205.39 -405.58,-272.93 -148.39,-67.53 -322.48,-94.5 -472.55,-34.14 -150.12,60.4 -263.49,223.78 -233.03,384.64 30.53,161.32 183.06,267.91 329.15,341.49 216.72,109.2 448.86,186.74 686.82,229.45 42.91,7.73 89.38,16.03 119.43,48.06 54.14,57.65 21.4,155.53 -35.29,209.45 -64.19,61.08 -150.47,91.96 -225.67,138.71 -75.19,46.75 -144.93,122.35 -139.72,211.72 7.19,123.98 145.81,192.37 265.31,223.67 239.3,62.72 488.85,83.82 734.33,62.19 88,-7.79 178.35,-20.79 263.68,3.52 85.34,24.35 164.97,98.92 162.16,188 -2.82,89.17 -85.91,156.29 -171.43,178.62 -85.46,22.35 -175.96,12.71 -264.2,19.63 -165.15,12.93 -341.77,107.68 -374.7,271.13 -21.62,107.43 25.29,220.83 99.78,301.8 74.46,81 173.47,134.37 273.23,179.62 348.74,158.21 736.32,235.41 1114.76,195.43 378.4,-39.99 694.29,-151.04 962.17,-421.21z"/>
   <path class="fil0" d="M6263.4 15834.32c-136.66,-233.14 -48.13,-124.18 -284.84,-391.48 -236.23,-267.81 -519.5,-539.9 -825.59,-814.31 -76.75,-68.31 -152.61,-135.82 -227.36,-202.34 -74.77,-66.22 -148.93,-131.92 -225.43,-191.69 -152.52,-120.23 -308.3,-224.21 -459.27,-318.26 -150.97,-94.17 -297.68,-178.03 -435.41,-255.43 -137.97,-77.14 -267.92,-146.62 -389.06,-204.89 -242.04,-117.46 -448.08,-188.91 -591.52,-232.18 -71.72,-21.87 -127.91,-37 -166.15,-46.75 -18.33,-4.54 -32.7,-8.12 -43.53,-10.81 -9.84,-2.3 -14.91,-3.31 -14.99,-2.97 -0.12,0.37 4.8,2.06 14.46,5.05 10.69,3.18 24.92,7.41 43,12.8 37.84,11.07 93.63,27.44 164.91,50.44 142.51,45.63 347.04,118.97 587.55,237.74 120.39,58.95 249.62,129.01 387.02,206.71 137.28,78.02 283.44,162.29 433.78,256.64 150.29,94.29 305.26,198.24 456.75,318.02 75.99,59.55 149.42,124.74 224.33,191.2 74.69,66.5 150.48,134 227.18,202.28 305.82,274.21 588.8,545.22 825.13,811.53 236.74,265.78 148.66,154.85 286.45,386.2l12.58 -7.5z"/>
   <path class="fil0" d="M4694.46 14236.3c1.35,-0.4 -2.45,-17.53 -10.48,-48.23 -7.88,-30.74 -20.77,-74.79 -37.46,-129.01 -33.3,-108.42 -84.4,-256.57 -141.35,-419.7 -56.99,-163.22 -105.83,-311.67 -137.39,-420.29 -15.92,-54.27 -28.39,-98.33 -36.59,-128.89 -8.4,-30.53 -13.71,-47.29 -15.11,-47 -1.4,0.32 1.25,17.65 7.25,48.81 5.82,31.19 16.14,75.96 30.33,130.89 28.02,110.02 74.85,259.84 131.91,423.19 56.61,160.85 107.84,306.34 146.98,417.51 17.37,50.33 31.96,92.76 43.69,126.81 10.42,29.9 16.82,46.32 18.22,45.9z"/>
   <path class="fil0" d="M3266.79 14607.36c0.58,1.32 20.27,-5.29 55.29,-18.31 35.1,-12.82 85.76,-31.64 149.09,-52.88 126.3,-43.48 302.88,-97.42 500.29,-148.42 197.57,-50.65 378.31,-88.89 509.84,-112.77 65.71,-12.42 119.13,-21.04 156.04,-27.21 36.92,-6.02 57.26,-10.04 57.12,-11.48 -0.2,-1.46 -20.91,-0.15 -58.27,3.39 -37.32,3.72 -91.25,10.14 -157.49,20.68 -132.54,20.2 -314.41,56.28 -512.59,107.06 -197.98,51.17 -374.56,107.55 -499.96,154.77 -62.89,23.11 -112.92,44.08 -147.15,59.3 -34.16,15.39 -52.76,24.49 -52.21,25.86z"/>
   <path class="fil0" d="M5951.09 15426.27c0.72,-0.01 1.2,-6.95 1.49,-20.22 0.05,-15.7 0.08,-34.83 0.15,-58.03 -0.11,-50.38 -2.15,-123.29 -5.86,-213.33 -7.28,-180.09 -25.18,-428.54 -48.62,-702.43 -23.44,-274.01 -43.62,-521.96 -54.66,-701.62 -5.14,-87.45 -9.32,-159.4 -12.46,-212.87 -1.47,-23.17 -2.7,-42.23 -3.72,-57.92 -1.07,-13.21 -1.97,-20.15 -2.71,-20.17 -0.71,0.05 -1.19,6.99 -1.47,20.27 -0.04,15.69 -0.11,34.8 -0.16,58 0.09,50.38 2.13,123.29 5.83,213.33 7.3,180.09 25.18,428.55 48.65,702.54 23.44,273.94 43.6,521.85 54.66,701.55 5.08,87.43 9.33,159.39 12.44,212.83 1.47,23.15 2.72,42.27 3.71,57.92 1.1,13.25 1.99,20.19 2.72,20.16z"/>
   <path class="fil0" d="M3943.04 15683.2c0.13,0.72 7.23,0.35 20.66,-0.98 15.79,-1.84 35.15,-4.1 58.63,-6.83 53.91,-6.79 126.67,-15.98 215.19,-27.19 181.71,-22.9 433.03,-51.66 710.78,-83.08 277.86,-31.38 529.17,-62.5 710.45,-89.18 90.65,-13.32 163.88,-24.82 214.32,-33.82 23.25,-4.28 42.42,-7.84 58.03,-10.68 13.22,-2.68 20.13,-4.46 20,-5.18 -0.13,-0.71 -7.25,-0.33 -20.67,0.97 -15.73,1.86 -35.1,4.11 -58.62,6.85 -53.91,6.8 -126.63,16 -215.15,27.16 -181.7,22.94 -433.06,51.69 -710.91,83.11 -277.76,31.38 -529.05,62.49 -710.32,89.17 -90.66,13.32 -163.88,24.83 -214.35,33.83 -23.25,4.29 -42.41,7.79 -58.02,10.69 -13.23,2.67 -20.1,4.43 -20.01,5.15z"/>
   <path class="fil0" d="M411.13 4953.9c430.16,430.16 860.33,860.33 1290.49,1290.49l-1290.49 -1290.49z"/>
   <path class="fil0" d="M1701.62 6244.39c-4.22,4.23 -296.56,-281.25 -652.87,-637.56 -356.43,-356.43 -641.85,-648.7 -637.62,-652.93 4.22,-4.23 296.5,281.19 652.93,637.62 356.31,356.31 641.79,648.65 637.56,652.87z"/>
   <path class="fil0" d="M17032.56 955.4c-3.85,4.57 -158.9,-120.06 -346.26,-278.34 -187.41,-158.31 -336.17,-290.34 -332.3,-294.9 3.86,-4.57 158.87,120.04 346.28,278.37 187.35,158.28 336.13,290.32 332.28,294.87z"/>
   <path class="fil0" d="M9926.19 1917.93c-4.13,4.34 -159.39,-137.07 -346.74,-315.79 -187.4,-178.77 -335.93,-327.15 -331.81,-331.48 4.12,-4.32 159.35,137.05 346.75,315.82 187.35,178.72 335.92,327.14 331.8,331.46z"/>
   <path class="fil0" d="M11570.65 6691.13c-4.14,4.32 -159.39,-137.08 -346.75,-315.78 -187.41,-178.79 -335.95,-327.17 -331.82,-331.5 4.12,-4.31 159.35,137.06 346.77,315.83 187.35,178.71 335.92,327.13 331.8,331.46z"/>
   <path class="fil0" d="M18823.02 12670.95c-4.12,4.33 -159.39,-137.08 -346.74,-315.78 -187.42,-178.78 -335.96,-327.16 -331.82,-331.5 4.13,-4.32 159.35,137.05 346.77,315.83 187.35,178.71 335.92,327.13 331.8,331.45z"/>
   <path class="fil0" d="M17925.84 4862.71c-4.13,4.34 -159.39,-137.07 -346.74,-315.78 -187.41,-178.78 -335.94,-327.16 -331.82,-331.49 4.12,-4.32 159.35,137.05 346.76,315.82 187.35,178.71 335.93,327.14 331.8,331.45z"/>
  </g>
  <g id="_2391825733344">
   <g>
    <g>
     <path class="fil1" d="M1007.15 1149.34c394.49,394.49 788.99,788.99 1183.48,1183.49l-1183.48 -1183.49z"/>
    </g>
    <g>
     <g>
      <path class="fil1" d="M2190.63 2332.82c-3.87,3.88 -271.97,-257.93 -598.73,-584.69 -326.87,-326.87 -588.63,-594.91 -584.75,-598.79 3.88,-3.88 271.91,257.88 598.8,584.75 326.75,326.76 588.56,594.86 584.68,598.73z"/>
     </g>
    </g>
   </g>
   <g>
    <g>
     <path class="fil1" d="M959.8 14118.91c394.49,394.5 788.99,789 1183.48,1183.49l-1183.48 -1183.49z"/>
    </g>
    <g>
     <g>
      <path class="fil1" d="M2143.28 15302.4c-3.87,3.87 -271.97,-257.94 -598.73,-584.69 -326.87,-326.88 -588.63,-594.92 -584.75,-598.8 3.88,-3.88 271.91,257.88 598.79,584.75 326.76,326.76 588.57,594.86 584.69,598.74z"/>
     </g>
    </g>
   </g>
   <g>
    <g>
     <path class="fil1" d="M10027.29 14657.78c394.48,394.49 788.99,788.99 1183.48,1183.49l-1183.48 -1183.49z"/>
    </g>
    <g>
     <g>
      <path class="fil1" d="M11210.77 15841.27c-3.88,3.87 -271.97,-257.94 -598.73,-584.69 -326.88,-326.88 -588.63,-594.92 -584.75,-598.8 3.87,-3.88 271.91,257.88 598.79,584.75 326.76,326.76 588.56,594.86 584.69,598.74z"/>
     </g>
    </g>
   </g>
   <g>
    <g>
     <path class="fil1" d="M6311.08 1271.09c394.49,394.5 788.99,788.99 1183.48,1183.48l-1183.48 -1183.48z"/>
    </g>
    <g>
     <g>
      <path class="fil1" d="M7494.56 2454.57c-3.87,3.88 -271.97,-257.93 -598.73,-584.69 -326.87,-326.87 -588.63,-594.92 -584.75,-598.79 3.87,-3.88 271.91,257.88 598.79,584.75 326.76,326.76 588.57,594.86 584.69,598.73z"/>
     </g>
    </g>
   </g>
   <g>
    <g>
     <path class="fil1" d="M9268.14 0.05c394.5,394.49 788.99,789 1183.48,1183.48l-1183.48 -1183.48z"/>
    </g>
    <g>
     <g>
      <path class="fil1" d="M10451.62 1183.52c-3.87,3.88 -271.97,-257.93 -598.73,-584.68 -326.87,-326.88 -588.63,-594.92 -584.75,-598.8 3.88,-3.87 271.92,257.88 598.79,584.76 326.76,326.75 588.57,594.85 584.69,598.72z"/>
     </g>
    </g>
   </g>
   <g>
    <g>
     <path class="fil1" d="M5445.05 2824.5c-3.79,3.98 -146.17,-125.7 -317.99,-289.6 -171.88,-163.96 -308.1,-300.04 -304.32,-304 3.78,-3.97 146.14,125.68 318.02,289.64 171.82,163.89 308.07,300.01 304.28,303.96z"/>
    </g>
   </g>
   <g>
    <g>
     <path class="fil1" d="M13733.1 2824.5c-3.79,3.98 -146.17,-125.7 -318,-289.6 -171.87,-163.95 -308.09,-300.04 -304.31,-304 3.78,-3.97 146.14,125.68 318.02,289.64 171.82,163.89 308.07,300.01 304.28,303.96z"/>
    </g>
   </g>
   <g>
    <g>
     <path class="fil1" d="M10657.68 5872.35c-3.78,3.97 -146.17,-125.7 -317.99,-289.59 -171.87,-163.96 -308.09,-300.04 -304.31,-304.02 3.78,-3.95 146.14,125.69 318.01,289.64 171.82,163.89 308.06,300.01 304.28,303.97z"/>
    </g>
   </g>
   <g>
    <g>
     <path class="fil1" d="M17035.78 9790.86c-3.78,3.97 -146.17,-125.7 -317.99,-289.61 -171.87,-163.95 -308.1,-300.02 -304.31,-303.99 3.78,-3.97 146.14,125.68 318.01,289.63 171.82,163.89 308.07,300 304.28,303.97z"/>
    </g>
   </g>
   <g>
    <g>
     <path class="fil1" d="M14074.21 15736.82c-3.78,3.97 -109.46,-90.69 -235.99,-211.39 -126.58,-120.74 -226.09,-221.8 -222.3,-225.78 3.78,-3.97 109.42,90.67 236,211.41 126.53,120.7 226.07,221.79 222.29,225.76z"/>
    </g>
   </g>
   <g>
    <g>
     <path class="fil1" d="M1402.57 12912.7c-3.78,3.98 -146.16,-125.7 -317.99,-289.59 -171.87,-163.95 -308.09,-300.04 -304.31,-304 3.78,-3.97 146.14,125.68 318.02,289.64 171.81,163.88 308.05,300 304.27,303.96z"/>
    </g>
   </g>
   <g>
    <g>
     <path class="fil1" d="M622.38 9909.28c-3.79,3.97 -146.17,-125.71 -317.99,-289.61 -171.88,-163.95 -308.1,-300.04 -304.32,-304 3.78,-3.97 146.14,125.68 318.02,289.64 171.82,163.89 308.07,300 304.28,303.97z"/>
    </g>
   </g>
   <g>
    <g>
     <path class="fil1" d="M1871.38 4792.7c-3.79,3.98 -146.18,-125.7 -318,-289.59 -171.87,-163.96 -308.09,-300.04 -304.31,-304 3.78,-3.97 146.14,125.68 318.01,289.63 171.82,163.89 308.08,300.01 304.3,303.97z"/>
    </g>
   </g>
  </g>
  <path class="fil0" d="M15013.85 8187.76c111.44,-950.07 -290.74,-1944.97 -1031.11,-2550.7 -740.37,-605.73 -1795.22,-802.9 -2704.39,-505.48 -534.7,174.91 -1041.92,511.25 -1603.59,479.24 -730.98,-41.66 -1265.59,-679.89 -1706.37,-1264.51 -440.77,-584.63 -1119.97,-1267.87 -1851.13,-1306.33 -457.9,-24.08 -1279.25,59.87 -1865.5,471.24 -1335.8,937.32 -1648.32,2596.61 -1080.01,4107.05 573.93,1525.38 1429.41,3236.18 2397.43,3700.77 1533.23,735.85 3542.12,519.9 5158.24,232.27 1674.36,-298 3341.88,-1152.21 4049.09,-2698.87l237.35 -664.67z"/>
  <g id="_2391825749600">
   <g>
    <path class="fil2" d="M16307.76 16403.09c0,5.97 -3570.37,10.82 -7609.26,10.82 -4040.29,0 -7314.51,-4.84 -7314.51,-10.82 0,-5.98 3274.23,-10.83 7314.51,-10.83 4038.89,0 7609.26,4.85 7609.26,10.83z"/>
   </g>
  </g>
  <g id="_2391825748352">
   <g>
    <g>
     <g>
      <g>
       <path class="fil3" d="M14943.11 14861.87c-71.47,102.08 -210.38,68.28 -274.78,5.99 -64.4,-62.32 -91.63,-152.61 -116.4,-238.72 -56.61,-196.74 -113.7,-403.14 -71.6,-603.5 12.59,-59.89 34.99,-119.64 77.07,-164.06 42.09,-44.44 106.82,-70.89 166,-55.25 70.04,18.5 113.57,87.1 145.02,152.35 92.47,191.81 141.44,404.44 142.16,617.37 0.35,99.44 -11.37,203.73 -67.47,285.82z"/>
      </g>
     </g>
    </g>
   </g>
   <g>
    <g>
     <g>
      <g>
       <path class="fil4" d="M14943.11 14861.87c-71.47,102.08 -210.38,68.28 -274.78,5.99 -64.4,-62.32 -91.63,-152.61 -116.4,-238.72 -56.61,-196.74 -113.7,-403.14 -71.6,-603.5 12.59,-59.89 34.99,-119.64 77.07,-164.06 42.09,-44.44 106.82,-70.89 166,-55.25 70.04,18.5 113.57,87.1 145.02,152.35 92.47,191.81 141.44,404.44 142.16,617.37 0.35,99.44 -11.37,203.73 -67.47,285.82z"/>
      </g>
     </g>
    </g>
   </g>
   <g>
    <g>
     <g>
      <g>
       <path class="fil3" d="M14675.34 15378.78c-116.88,-60.29 -254.5,-68.14 -384.26,-46.69 -69.71,11.53 -142.37,32.38 -189.82,84.74 -47.42,52.36 -56.42,144.5 -1.96,189.5 32.42,26.77 77.64,30.85 119.68,30.37 101.58,-1.19 214.28,-19.08 295.43,42.05 46.3,34.87 77.12,92.83 132.47,109.99 54.16,16.77 115.27,-15.19 143.99,-64.07 28.72,-48.87 29.67,-109.98 16.29,-165.06 0,0 -14.1,-120.07 -131.82,-180.83z"/>
      </g>
     </g>
    </g>
   </g>
   <g>
    <g>
     <g>
      <g>
       <path class="fil3" d="M15139.36 15008.34c-77.6,-92.1 -92.32,-226.42 -57.79,-341.79 34.53,-115.37 112.55,-213.51 202.44,-293.65 105.4,-93.95 229.31,-167.05 362.5,-213.88 52.43,-18.43 107.71,-32.97 163.03,-27.7 55.32,5.28 111.01,33.56 136.81,82.77 38.15,72.76 1.58,161.01 -37.98,233.02 -69.71,126.85 -149.39,248.2 -238.1,362.56 -71.37,92 -153.11,182.76 -261.87,224.33 -108.76,41.59 -221.74,36.7 -279.4,-38.72l10.37 13.06z"/>
      </g>
     </g>
    </g>
   </g>
   <g>
    <g>
     <g>
      <g>
       <g>
        <path class="fil2" d="M14947.94 16401.62c-1.33,0.08 -3.51,-16.45 -6.46,-46.39 -3.29,-33.74 -7.41,-76.14 -12.33,-126.57 -5.89,-53.27 -13.67,-116.64 -28.47,-185.67 -14.76,-68.85 -37.84,-143.47 -67.48,-219.14 -30.71,-75.23 -68.15,-143.6 -111.91,-198.28 -43.44,-54.93 -93.96,-94.68 -141.46,-117.61 -47.33,-23.38 -89.79,-32.88 -119.14,-37.1 -29.59,-3.03 -46.16,-5.37 -46.17,-6.68 -0.01,-1.32 16.59,-1.53 47,-0.73 30.11,2.01 74.33,9.64 124.22,32.34 50.06,22.19 103.66,62.57 149.23,118.63 45.94,55.83 84.76,125.71 115.98,202.27 30.17,77 52.91,152.39 67.01,222.72 14.05,70.21 20.48,134.31 24.69,188.01 4.02,53.75 5.54,97.27 6.27,127.36 0.67,30.09 0.32,46.76 -0.98,46.83z"/>
       </g>
      </g>
     </g>
    </g>
   </g>
   <g>
    <g>
     <g>
      <g>
       <g>
        <path class="fil2" d="M14939.22 16304.23c-0.66,-0.03 -1.07,-7.45 -1.25,-21.53 0.05,-16.17 0.11,-36.53 0.16,-61.55 0.15,-53.39 0.12,-130.69 -2.73,-226.13 -4.73,-190.88 -21.17,-454.38 -52.91,-744.01 -31.99,-289.73 -74.36,-550.33 -112.99,-737.31 -9.13,-46.87 -18.33,-89.04 -26.97,-125.97 -8.26,-37.02 -15.31,-68.93 -22.12,-94.75 -5.85,-24.31 -10.6,-44.11 -14.38,-59.82 -3.08,-13.74 -4.39,-21.05 -3.76,-21.24 0.64,-0.19 3.19,6.76 7.48,20.18 4.69,15.5 10.59,35.01 17.87,58.98 7.92,25.57 16.04,57.29 25.31,94.15 9.66,36.77 19.81,78.85 29.82,125.65 42.13,186.72 86.73,447.68 118.78,738.02 31.81,290.23 46.14,554.5 47.41,745.87 1.13,95.68 -0.91,173.13 -3.34,226.58 -1.53,25 -2.78,45.35 -3.77,61.5 -1.07,14.05 -1.94,21.4 -2.6,21.38z"/>
       </g>
      </g>
     </g>
    </g>
   </g>
   <g>
    <g>
     <g>
      <g>
       <g>
        <path class="fil2" d="M14937.94 15794.53c-1.33,-0.06 -1.11,-22.88 0.44,-64.3 2.37,-41.3 8.06,-101.03 19.69,-174.16 12.34,-72.98 29.57,-159.63 56.65,-253.78 25.75,-94.48 61.14,-196.52 106.12,-300.29 88.02,-208.8 207.61,-379.51 311.64,-485.26 24.39,-28.06 51.58,-48.31 73.31,-68.15 11.26,-9.51 21.19,-18.99 31.31,-26.51 10.18,-7.02 19.66,-13.55 28.45,-19.6 34.25,-23.43 53.42,-35.77 54.13,-34.66 3.08,4.17 -76.68,51.11 -177.42,158.27 -100.3,106.92 -216.54,276.45 -303.85,483.51 -44.59,102.87 -80.22,203.94 -106.72,297.52 -27.83,93.24 -46.32,179.01 -60.28,251.26 -13.27,72.4 -20.96,131.52 -25.6,172.45 -3.82,41.01 -6.56,63.74 -7.87,63.69z"/>
       </g>
      </g>
     </g>
    </g>
   </g>
  </g>
  <g id="_2391825759744">
   <g>
    <g>
     <g>
      <path class="fil0" d="M4967.19 2041.37l2566.79 0c0,0 -226.98,-413.06 -887.68,-352.94 -631.01,57.43 -663.09,-203.2 -983.94,-235.28 -320.85,-32.09 -588.23,213.89 -695.18,588.22z"/>
     </g>
    </g>
   </g>
   <g>
    <g>
     <g>
      <path class="fil0" d="M1209.37 3437.1l3184.78 0c0,0 -281.63,-512.5 -1101.41,-437.91 -782.93,71.24 -822.74,-252.13 -1220.83,-291.94 -398.1,-39.81 -729.85,265.4 -862.54,729.85z"/>
     </g>
    </g>
   </g>
   <g>
    <g>
     <g>
      <path class="fil5" d="M11886.8 3070.43l5218.18 0c0,0 -461.44,-839.71 -1804.61,-717.49 -1282.8,116.74 -1348.03,-413.1 -2000.3,-478.33 -652.27,-65.23 -1195.84,434.84 -1413.26,1195.82z"/>
     </g>
    </g>
   </g>
  </g>
  <g id="_2391825764160">
   <g>
    <g>
     <g>
      <path class="fil3" d="M11830.12 3583.93c0,0 -4242.54,-2483.07 -8348.34,144.28 -4105.81,2627.34 -3024.87,8011.86 -3024.87,8011.86 0,0 661.53,-693.34 1879.87,-468.98 0,0 -22.3,-1663.96 1777.16,-1510.55 0,0 903.87,-2097.98 2855.76,-1523.29 0,0 364.05,-1875.66 2724.51,-1637.58 0,0 521.74,-2138.84 2135.91,-3015.74z"/>
     </g>
    </g>
    <g>
     <g>
      <path class="fil6" d="M11830.12 3583.93c0,0 -4242.54,-2483.07 -8348.34,144.28 -4105.81,2627.34 -3024.87,8011.86 -3024.87,8011.86 0,0 661.53,-693.34 1879.87,-468.98 0,0 -22.3,-1663.96 1777.16,-1510.55 0,0 903.87,-2097.98 2855.76,-1523.29 0,0 364.05,-1875.66 2724.51,-1637.58 0,0 521.74,-2138.84 2135.91,-3015.74z"/>
     </g>
    </g>
   </g>
   <g>
    <g>
     <path class="fil2" d="M3922.95 10863.45c-43.26,-335.96 158.38,-688.68 469.84,-821.85 227.57,-97.31 515.67,-97.4 670.91,-290.15 171.47,-212.92 82.68,-548.01 233.3,-776.13 172.39,-261.09 584.37,-276.88 750.05,-542.27 124.26,-199.02 63.86,-469.87 175.92,-675.99 117.05,-215.32 385.63,-299.24 544.2,-486.09 176.13,-207.54 218.3,-540.28 465.57,-654.07 141.11,-64.95 311.73,-32.18 445.75,46.37 134.01,78.54 238.9,197.36 341.34,314.13 410.76,468.18 821.51,936.34 1232.26,1404.52 34.12,38.88 69.15,79.39 84.05,128.91 41.39,137.53 -82.32,262.87 -181.27,366.94 -244.96,257.67 -399.52,599.68 -431.01,953.82 -19.72,221.79 -7.95,481.47 -180.67,621.99 -133.83,108.87 -340.67,105.41 -457.03,232.78 -167.73,183.61 -31.31,478.63 -75.89,723.29 -41.61,228.34 -241.61,394.87 -449.26,498.56 -207.66,103.69 -436.61,166.44 -628.98,296.3 -192.37,129.86 -347.41,356.63 -298.66,583.55 -414.55,-200.24 -797.9,-464.94 -1132.04,-781.65 99.04,-143.97 198.08,-287.94 297.11,-431.91 -175.32,109.83 -350.63,219.65 -525.95,329.49 -69.59,-123.07 -208.01,-186.08 -323.18,-268.08 -115.17,-82 -220.15,-221.49 -172.42,-354.58 57.45,-160.19 302.35,-210.22 323.43,-379.08 -227.67,52.65 -436.08,185.03 -580.51,368.74 -235,-94.7 -471.13,-187.6 -596.87,-407.55z"/>
    </g>
   </g>
   <g>
    <g>
     <g>
      <path class="fil3" d="M7520.66 10009.59c-411.31,-324.42 -767,-217.61 -1153.89,-121.48 -386.88,96.14 -699.51,461.96 -977.88,747.33 -278.37,285.36 -523.05,604.21 -822.64,867.21 -299.59,263 -670.83,471.79 -1069.45,476.36 -293.73,3.37 -585.59,-103.86 -876.47,-62.96 -287.82,40.45 -549.27,235.15 -670.51,499.3 111.55,272.75 223.11,545.49 334.66,818.23 137.39,-343.2 553.06,-484.29 922.65,-492.08 369.6,-7.79 744.25,74.81 1106.02,-1.21 434.63,-91.33 790.19,-398.99 1092.52,-724.32 302.32,-325.33 578.47,-684.28 947.07,-932.01 368.6,-247.74 865.25,-365.77 1258.43,-159.24l-90.51 -915.12z"/>
     </g>
     <g>
      <g>
       <path class="fil6" d="M7520.66 10009.59c-411.31,-324.42 -767,-217.61 -1153.89,-121.48 -386.88,96.14 -699.51,461.96 -977.88,747.33 -278.37,285.36 -523.05,604.21 -822.64,867.21 -299.59,263 -670.83,471.79 -1069.45,476.36 -293.73,3.37 -585.59,-103.86 -876.47,-62.96 -287.82,40.45 -549.27,235.15 -670.51,499.3 111.55,272.75 223.11,545.49 334.66,818.23 137.39,-343.2 553.06,-484.29 922.65,-492.08 369.6,-7.79 744.25,74.81 1106.02,-1.21 434.63,-91.33 790.19,-398.99 1092.52,-724.32 302.32,-325.33 578.47,-684.28 947.07,-932.01 368.6,-247.74 865.25,-365.77 1258.43,-159.24l-90.51 -915.12z"/>
      </g>
     </g>
    </g>
    <g>
     <g>
      <path class="fil7" d="M2672.56 12865.73c-2.62,1.07 -25.28,-45.82 -57.21,-123.66 -31.96,-77.83 -72.58,-186.85 -111.28,-309.29 -38.62,-122.53 -67.94,-235.13 -86.44,-317.19 -18.53,-82.08 -26.88,-133.48 -24.12,-134.1 3.06,-0.68 16.71,49.48 38.97,130.36 22.24,80.9 53.77,192.37 92.24,314.4 38.55,121.96 76.71,231.32 104.93,310.32 28.2,79.02 45.83,127.93 42.92,129.14z"/>
     </g>
    </g>
    <g>
     <g>
      <path class="fil7" d="M3358.23 12727.99c-2.67,0.99 -21.35,-40.67 -47.17,-109.74 -25.85,-69.06 -58.31,-165.72 -88.73,-274.08 -30.36,-108.42 -52.86,-207.88 -66.68,-280.3 -13.83,-72.44 -19.54,-117.74 -16.73,-118.27 3.06,-0.6 14.07,43.62 31.69,114.98 17.6,71.37 42.34,169.79 72.57,277.74 30.28,107.89 60.28,204.83 82.35,274.95 22.05,70.12 35.63,113.63 32.7,114.71z"/>
     </g>
    </g>
    <g>
     <g>
      <path class="fil7" d="M4095.82 12785.8c-5.6,2.11 -80.55,-182.57 -167.4,-412.43 -86.87,-229.95 -152.74,-418.01 -147.14,-420.12 5.59,-2.12 80.53,182.52 167.4,412.47 86.84,229.87 152.73,417.96 147.15,420.09z"/>
     </g>
    </g>
    <g>
     <g>
      <path class="fil7" d="M4639.88 12569.74c-2.74,1.01 -23.84,-47.35 -54.46,-126.91 -30.63,-79.55 -70.44,-190.39 -110.68,-314.07 -40.23,-123.74 -73.24,-236.81 -95.27,-319.15 -22.03,-82.35 -33.42,-133.87 -30.62,-134.65 2.96,-0.82 19.54,49.22 45.31,130.35 27.79,87.02 62.62,196.1 101.16,316.76 39.8,120.19 75.79,228.88 104.51,315.61 26.88,80.76 42.92,131 40.05,132.07z"/>
     </g>
    </g>
    <g>
     <g>
      <path class="fil7" d="M5123.43 12254.37c-5.67,1.91 -83.1,-213.6 -172.95,-481.28 -89.87,-267.78 -158.1,-486.33 -152.43,-488.24 5.67,-1.9 83.09,213.56 172.96,481.34 89.85,267.69 158.09,486.28 152.42,488.18z"/>
     </g>
    </g>
    <g>
     <g>
      <path class="fil7" d="M5408.04 11293.77c-5.52,2.31 -55.12,-103.33 -110.79,-235.94 -55.68,-132.65 -96.34,-242.03 -90.82,-244.34 5.52,-2.31 55.1,103.32 110.79,235.96 55.67,132.6 96.33,242.01 90.82,244.32z"/>
     </g>
    </g>
    <g>
     <g>
      <path class="fil7" d="M5867.54 10675.42c-5.28,2.81 -49.53,-70.19 -98.82,-163.03 -49.31,-92.87 -84.98,-170.41 -79.7,-173.21 5.28,-2.8 49.52,70.19 98.83,163.05 49.28,92.84 84.98,170.39 79.7,173.19z"/>
     </g>
    </g>
    <g>
     <g>
      <path class="fil7" d="M6504.68 10291.08c-5.82,1.97 -39.55,-83.33 -82.96,-187.52 -43.25,-104.3 -79.9,-188.36 -74.4,-191.1 5.17,-2.63 50.82,77.7 94.38,182.79 43.74,104.98 68.49,194 62.98,195.83z"/>
     </g>
    </g>
    <g>
     <g>
      <path class="fil7" d="M7102.77 10135.1c-5.69,0.54 -16.64,-75.65 -10.6,-169.95 5.71,-94.36 26.05,-168.58 31.63,-167.33 6.12,1.21 -4.43,76.04 -10.03,168.67 -5.95,92.58 -4.79,168.17 -11.01,168.6z"/>
     </g>
    </g>
   </g>
   <g>
    <g>
     <g>
      <g>
       <g>
        <g>
         <g>
          <path class="fil3" d="M6615.65 14068.38l-620.14 -3493.55c584.89,-480.34 1219.34,-447.06 1219.34,-447.06l2043.15 17.38c0,0 129.43,9.8 318.16,65.07 249.8,17.62 718.49,112.1 1072.39,693.4 376.02,617.67 920.04,1889.16 920.04,1889.16l114.77 -1423.18 910.06 -276.84c755.65,2015.93 270.53,3540.67 -566.68,3665.29 -696.24,103.65 -1366.07,-738.99 -1366.07,-738.99l-338.06 -579.92 -75.47 381.08 -201.36 951.57 728.32 1631.3c-255.33,0 -425.57,10.54 -739.64,-0.27l-3894.38 0.27c28.93,-294.64 401.33,-665 401.33,-665 269.32,-456.77 199.61,-1146.32 74.24,-1669.71z"/>
         </g>
        </g>
       </g>
      </g>
      <g>
       <g>
        <path class="fil7" d="M10342.57 15969.57c-0.52,0.54 -8.7,-5.86 -23.74,-18.47 -14.52,-13.21 -37.51,-30.72 -67.62,-52.5 -60.48,-42.93 -156.15,-94.88 -283.81,-131.59 -127.54,-36.51 -286.31,-55.54 -461.82,-48.37 -175.71,6.73 -366.91,41.08 -567.49,76.38 -200.66,35.22 -394.17,64.91 -572.22,62.91 -177.72,-1.63 -337.23,-33.02 -462.68,-81.65 -125.64,-48.86 -216.38,-112.5 -271.08,-163.71 -27.21,-25.94 -47.44,-46.84 -59.46,-62.59 -12.63,-15.15 -18.96,-23.31 -18.38,-23.79 0.58,-0.47 8.04,6.75 21.62,20.89 13.01,14.71 34.06,34.48 61.8,59.18 55.85,48.73 146.46,109.37 270.91,155.69 124.29,46.1 281.83,75.52 457.41,76.04 175.77,0.91 367.91,-29.07 568.35,-64.28 200.47,-35.27 392.76,-69.27 570.48,-74.98 177.43,-6.17 338.1,14.68 466.86,53.61 128.89,39.1 224.86,93.96 284.45,139.44 29.67,23.06 51.95,41.77 65.61,56.11 14.17,13.73 21.33,21.16 20.8,21.69z"/>
       </g>
      </g>
      <g>
       <g>
        <g>
         <path class="fil2" d="M11590.94 13432.75c-13.05,0.41 -28.39,-152.7 -34.28,-341.96 -5.88,-189.32 -0.08,-343.06 12.96,-343.46 13.02,-0.41 28.36,152.67 34.26,341.99 5.89,189.25 0.09,343.03 -12.94,343.43z"/>
        </g>
       </g>
      </g>
      <g>
       <g>
        <g>
         <path class="fil4" d="M6424.78 15865.36c-14.81,4.45 -98.03,125.01 -75.26,178.18 22.76,53.18 83.15,82.28 140.92,84.9 57.79,2.6 114.13,-16.3 168.88,-34.96 650.69,-221.82 1301.38,-443.65 1952.06,-665.47 298.1,-101.62 596.21,-203.25 894.32,-304.87 102.22,-34.85 220.07,-86.71 240.83,-192.7 6.54,-33.43 2.04,-68.87 13.11,-101.09 17.61,-51.18 69.82,-81.77 120.72,-100.14 50.91,-18.36 105.81,-29.77 149.15,-62.18 43.32,-32.43 74.39,-135.98 45.77,-181.91 3.91,8.02 -322.92,46.99 -487.58,129.54 11.14,65.29 54.55,231.58 54.55,231.58 0,0 -174.79,46.89 -237.77,72.15 -1034.48,414.75 -1946.3,594.55 -2979.71,946.97z"/>
        </g>
       </g>
      </g>
     </g>
     <g>
      <g>
       <g>
        <polygon class="fil8" points="11678.73,8604.53 10283.07,10866.22 11381.51,11171.7 12599.88,9292.71 "/>
       </g>
      </g>
      <g>
       <g>
        <path class="fil9" d="M11591.54 10531.31l47.76 330.6 194.62 250.59 19.59 205.35 700.2 -213.01 -282.94 -999.06c0,0 45.44,-290.85 27.27,-409.02l-192.29 255.59 -53.1 -416.49 -394.8 -317.34c-42.83,-31.9 -103.47,-22.59 -134.74,20.71 -27.68,38.3 -23.25,91.06 10.42,124.22l316.81 279.3 20.49 344.88 -229.03 -213.24c-22.59,-21.02 -50.57,-35.37 -80.84,-41.42l-318.42 -63.69c-48.09,-9.62 -93.99,24.32 -98.88,73.13 -3.94,39.34 20.41,76 58.19,87.63l289.51 89.08 293.13 295.76 -286.31 -109.08 -389.46 54.54c-37.29,5.21 -65.02,37.09 -65.02,74.73 0,43.33 36.4,77.77 79.66,75.37l247.55 -13.75 145.43 45.44 -335.01 88.7c-30.88,8.18 -51.82,36.84 -50.23,68.74 1.91,38.17 35.05,67.16 73.14,64l387.3 -32.24z"/>
       </g>
      </g>
      <g>
       <g>
        <path class="fil2" d="M10283.07 10866.22c0,0 -93.72,-127.45 -86.5,-149.1 7.21,-21.66 1328.27,-2195.9 1328.27,-2195.9l153.89 83.31 -1395.66 2261.69z"/>
       </g>
      </g>
      <g>
       <g>
        <path class="fil2" d="M12028.23 9172.95c23.56,-23.58 71.06,-11.56 80.57,20.39 9.52,31.94 -23.65,67.99 -56.28,61.16 -32.61,-6.83 -48.54,-53.17 -27.01,-78.61l2.72 -2.95z"/>
       </g>
      </g>
     </g>
     <g>
      <g>
       <g>
        <path class="fil3" d="M6386.92 10339.17c0,0 -1039.38,315.68 -1265.47,1871.02 -78.19,537.92 -173.59,1776.09 -206.28,2695.4 -21.44,602.5 202.15,941.79 566.69,1068.5 191.16,66.44 400.21,59.99 593.73,0.8l3558.57 -1107.45 -309.1 -1490.56 -2675.56 721.2 67.24 -1104.19 -329.82 -2654.72z"/>
       </g>
      </g>
      <g>
       <g>
        <g>
         <path class="fil2" d="M6159.62 14659.55c0,0 7.28,-71.38 71.6,-186.85 66.18,-112.92 196.06,-264.21 412.32,-386.31l1.07 -0.61 1.72 -0.44c602.89,-151.79 1545.04,-389 2645.43,-666.07l22.63 -5.69 5.37 22.8c71.4,303.37 146.26,621.44 223.09,947.93 36.58,156.02 72.7,310.11 106.78,455.45l4.91 20.96 -20.4 6.71c-1069.35,352 -2022.81,653.7 -2710.61,862.15 -343.94,104.08 -621.48,184.65 -813.38,237.99 -93.37,25 -167.11,44.75 -221.15,59.22 -23.19,5.69 -42.13,10.35 -57.67,14.17 -13.05,2.95 -19.81,4.1 -20.02,3.37 -0.2,-0.73 6.17,-3.34 18.81,-7.72 15.21,-4.95 33.75,-10.99 56.46,-18.4 53.45,-16.43 126.38,-38.84 218.73,-67.23 193.88,-60.33 468.71,-145.84 808.86,-251.67 685.02,-216.38 1636.61,-523.39 2705.2,-876.47l-15.47 27.66c-34.16,-145.33 -70.38,-299.4 -107.04,-455.39 -76.46,-326.58 -150.95,-644.74 -222,-948.19l27.98 17.11c-1102.37,269.03 -2046.24,499.38 -2650.21,646.79l2.77 -1.04c-212.14,115.54 -344.02,261.81 -412.26,370.12 -66.88,110.98 -78.93,181.29 -83.54,179.65z"/>
        </g>
       </g>
      </g>
      <g>
       <g>
        <g>
         <path class="fil2" d="M6645.52 12747.33c13.05,0.45 12.89,308.49 -0.32,687.93 -13.22,379.57 -34.52,686.81 -47.56,686.36 -13.02,-0.46 -12.88,-308.43 0.35,-688 13.21,-379.46 34.51,-686.75 47.53,-686.29z"/>
        </g>
       </g>
      </g>
     </g>
    </g>
    <g>
     <g>
      <g>
       <path class="fil7" d="M11186.51 11968.1c-0.23,1.53 -23.34,-5.22 -68.13,-5.19 -44.49,0 -111.26,11.09 -187.16,49.67 -76.66,37.37 -158.36,103.15 -244.14,188.85 -43.63,42.15 -89.45,88.44 -142.69,132.86 -52.97,44.37 -114.62,86.57 -186.92,114.76 -144.5,58.8 -320.21,60.04 -497.23,28.88 -178.6,-29.43 -360.73,-94.82 -558.46,-131.53 -98.64,-18.57 -201.82,-28.48 -305.99,-19.18 -103.99,9.83 -207.41,42.37 -302.91,94.75 -193.21,102.87 -355.89,266.39 -548.97,399.33 -96.72,66.11 -200.7,121.97 -311.16,154.42 -110.15,32.41 -223.91,46.52 -334.95,41.36 -111.06,-4.19 -219.29,-27.55 -318.96,-66.16 -99.84,-38.72 -190.2,-92.59 -273.23,-150.85 -166.09,-117.08 -307.64,-247.87 -454.88,-349.88 -145.83,-103.76 -300.57,-173.15 -450.72,-197.52 -149.83,-24.28 -289.64,-14.78 -406.85,13.34 -117.72,27.35 -213.83,70.26 -287.37,112.76 -148.29,85.29 -207.23,163.71 -210.44,159.54 -0.27,-0.26 3.71,-4.61 11.77,-12.88 8.86,-8.91 20.85,-20.96 36.17,-36.38 16.5,-15.36 38.32,-32.82 63.59,-54.07 27.15,-18.73 57.1,-42.55 94.64,-63.47 73.5,-43.98 170.05,-88.48 288.85,-117.27 118.3,-29.56 259.82,-40.36 412.16,-16.66 76.1,12.07 154.05,35.42 231.29,68.62 77.11,33.59 153.04,77.73 227.14,129.24 148.96,102.3 291.2,232.78 456.05,348.25 82.39,57.51 171.5,110.26 269.31,147.96 97.59,37.57 203.59,60.29 312.37,64.24 108.74,4.91 220.14,-9.03 327.88,-40.79 108,-31.84 209.47,-86.33 305.12,-151.67 190.91,-131.21 354.12,-295.33 551.23,-400.2 97.38,-53.27 204.18,-86.78 310.95,-96.6 106.88,-9.33 211.91,1.13 311.54,20.15 199.83,37.75 381.36,103.67 557.88,133.46 175.19,31.61 347.41,30.98 488.55,-25.43 142.16,-55.06 238.85,-160.07 326.85,-242.1 86.68,-85 170.58,-151.06 248.81,-187.69 77.58,-37.98 145.86,-47.9 190.91,-46.47 45.38,1.39 68.1,9.55 68.1,9.55z"/>
      </g>
     </g>
     <g>
      <g>
       <path class="fil7" d="M10651.98 10969.16c0.28,0.24 -2.65,4.13 -8.66,11.5 -6.26,7.15 -14.56,18.76 -27.69,31.94 -24.95,27.53 -65.32,65.32 -123.61,105.59 -58.69,39.22 -136.24,80.74 -233.71,107.25 -96.92,26.95 -214.43,36.56 -339.61,14.84 -125.39,-19.02 -257.12,-63.98 -402.76,-83.68 -145.4,-23.31 -305.46,7.38 -449.96,87.68 -145.87,78.23 -279.55,191.87 -426.35,298.59 -73.52,53.27 -150.99,105 -235.77,146.87 -84.93,41.08 -175.51,74.18 -270.21,94.88 -189.17,42.39 -383.6,39.26 -560.83,-5.57 -177.68,-44.59 -336.48,-124.5 -480.32,-208.44 -144.15,-84.33 -275.18,-173.25 -401.39,-250.2 -125.87,-77.39 -247.17,-142.91 -363.47,-189.8 -232.53,-95.91 -442.44,-106.22 -580.09,-84.02 -69.26,10.7 -121.6,26.86 -156.17,39.79 -17.5,5.98 -30.18,12.25 -39.11,15.5 -8.82,3.51 -13.42,5.16 -13.59,4.83 -0.17,-0.34 4.12,-2.65 12.67,-6.85 8.65,-3.93 21.09,-10.88 38.44,-17.56 34.27,-14.32 86.66,-31.95 156.43,-44.04 138.64,-25.02 351.43,-16.97 587.1,78.13 117.76,46.41 240.42,111.69 367.13,188.67 127.05,76.58 258.45,164.92 402.08,248.29 143.34,83.04 300.68,161.57 475.41,205.11 174.09,43.74 365.09,46.68 550.96,5.02 93.06,-20.32 182.04,-52.83 265.46,-93.08 83.14,-40.98 159.69,-91.91 232.84,-144.73 146.1,-105.77 280.68,-219.8 429.38,-299.01 73.95,-39.67 151.7,-69.35 230.43,-83.98 39.35,-6.79 78.66,-11.46 117.47,-11.88 38.73,0.47 76.88,2.4 113.82,7.98 148.09,20.92 279.18,66.71 402.88,86.37 123.31,22.35 238.08,13.99 334.02,-11.42 96.26,-24.99 173.38,-64.84 232.17,-102.57 58.36,-38.75 99.32,-75.21 125.13,-101.61 13.56,-12.6 22.37,-23.69 29.16,-30.33 6.54,-6.88 10.04,-10.31 10.33,-10.07z"/>
      </g>
     </g>
     <g>
      <g>
       <path class="fil7" d="M6602.26 13856.67c-2.01,4.84 -92.78,-41.2 -250.19,-81.38 -19.82,-4.73 -40.48,-9.65 -61.93,-14.77 -21.55,-4.96 -44.51,-7.65 -67.96,-11.82 -46.83,-9.26 -97.74,-12.62 -151.06,-17.73 -106.97,-5.93 -225.14,-3.36 -347.65,14 -122.31,18.94 -236.18,50.76 -336.83,87.48 -49.55,20.35 -97.29,38.32 -139.42,60.8 -21.23,10.79 -42.42,20.01 -61.62,31.03 -19.04,11.11 -37.38,21.82 -54.99,32.1 -138.97,84.13 -212.46,154.51 -215.79,150.47 -1,-1.11 17.44,-18.31 51.79,-48.58 16.91,-15.46 38.24,-33.63 64.97,-52.23 26.44,-18.9 55.39,-42.32 91.01,-62.71 17.56,-10.77 35.86,-22 54.87,-33.66 19.19,-11.51 40.41,-21.22 61.73,-32.5 42.3,-23.4 90.34,-42.25 140.33,-63.37 101.52,-38.22 216.81,-71.07 340.78,-90.26 124.15,-17.59 243.99,-19.6 352.22,-12.48 53.96,5.71 105.4,9.8 152.67,19.93 23.66,4.61 46.78,7.74 68.49,13.2 21.58,5.63 42.34,11.07 62.28,16.29 40,9.17 74.49,23.18 105.28,33.6 30.98,10.04 56.66,21.25 77.34,31.13 41.66,19 64.3,30.11 63.66,31.45z"/>
      </g>
     </g>
     <g>
      <g>
       <path class="fil7" d="M7577.23 13887.12c1.84,1.99 -24.58,18.66 -55.35,63.19 -31.3,43.76 -61.91,117.87 -71.93,214.16 -12.35,96.17 3.2,211.8 1.45,342.03 -1.42,64.91 -9.24,134.62 -34.66,201.99 -24.87,67.35 -64.58,130.9 -112.21,189.15 -95.95,116.93 -210.76,203.29 -304.27,291.08 -94.67,86.65 -169.56,176.32 -209.6,264.48 -42.01,87.23 -51.74,166.93 -49.72,220.58 2.59,54.06 13.03,82.96 10.75,83.53 -0.72,0.23 -3.36,-6.86 -7.77,-20.67 -4.15,-13.86 -8.71,-34.85 -11.4,-62.34 -4.71,-54.71 2.93,-137.21 44.24,-227.52 39.26,-91.33 115.12,-184.51 209.87,-272.65 93.77,-89.41 207.47,-175.92 301.12,-290.19 46.55,-56.93 84.99,-118.35 109.1,-182.88 24.59,-64.36 32.64,-131.33 34.6,-195.12 2.9,-127.74 -11.24,-245.05 3.29,-343.32 12.16,-98.13 46.01,-173.89 80.33,-217.27 33.82,-44.23 62.16,-58.24 62.16,-58.24z"/>
      </g>
     </g>
     <g>
      <g>
       <path class="fil7" d="M9200.32 14960.94c-1.87,0.04 -2.23,-21.01 -7.78,-58.09 -5.29,-36.99 -19.24,-89.99 -54.26,-147 -34.9,-56.92 -84.01,-120.82 -142.37,-187.87 -58.19,-67.44 -127.05,-138.22 -188.63,-222.46 -125.42,-168.96 -173.36,-358.5 -190.57,-492.03 -9.06,-67.39 -12.07,-122.28 -13.21,-160.15 -0.9,-37.91 -0.23,-58.87 1.19,-58.92 1.58,-0.06 3.75,20.79 7.22,58.39 3.71,37.58 9.04,91.97 19.94,158.4 20.98,131.93 70.28,316.36 192.92,481.54 60.29,82.56 128.5,153.64 186.25,222.24 58.15,68.51 106.38,133.76 140.51,193.2 34.37,59.74 46.63,115.77 49.36,153.65 1.76,19.03 1.73,33.86 1.23,43.86 -0.46,10.02 -1.07,15.25 -1.82,15.25z"/>
      </g>
     </g>
     <g>
      <g>
       <path class="fil7" d="M11503.07 13025.24c1.42,0.47 -2.14,14.26 -9.87,38.97 -3.65,12.43 -8.7,27.45 -16.11,44.29 -7.21,16.9 -14.48,36.65 -25.58,57.02 -20.08,41.81 -48.94,89.17 -85.19,138.74 -37.16,48.86 -82.26,99.49 -135.26,146.66 -53.57,46.58 -109.56,84.86 -162.77,115.49 -53.8,29.64 -104.45,52.22 -148.49,66.8 -43.85,14.91 -80.23,24.42 -105.79,28.43 -25.48,4.51 -39.62,6.28 -39.89,4.82 -0.87,-4.03 55.3,-14.6 140.39,-47.61 42.65,-16.16 91.66,-39.76 143.83,-69.72 51.58,-30.96 105.98,-68.88 158.41,-114.45 51.88,-46.17 96.41,-95.28 133.69,-142.49 36.37,-47.91 66.03,-93.5 87.49,-133.75 43.6,-80.17 61.25,-134.56 65.14,-133.19z"/>
      </g>
     </g>
     <g>
      <g>
       <path class="fil7" d="M12978.07 13098.95c-3.94,2.98 -53,-72.5 -156.05,-172.45 -50.41,-51.04 -118.08,-103.67 -196.07,-157.1 -78.99,-52.22 -171.87,-100.3 -273.71,-139.56 -151.11,-57.54 -300.66,-84.87 -425.66,-90.75 -125.37,-6.62 -224.99,8.6 -285.61,16.05l-10.12 1.25 5.66 -7.97c25.79,-36.32 40.42,-55.62 41.72,-54.76 1.3,0.86 -10.88,21.82 -34.43,59.61l-4.46 -6.72c60.3,-11.26 160.74,-29.91 287.98,-25.49 126.83,3.65 279.15,30.09 432.65,88.55 103.43,39.87 197.51,89.28 277.06,143.18 78.55,55.13 146.12,109.78 195.76,162.82 26.28,25.07 47.34,50.26 65.75,72.42 9.1,10.84 17.69,21.08 25.77,30.72 6.95,9.79 13.46,18.95 19.53,27.51 23.26,33.17 35.47,51.85 34.25,52.69z"/>
      </g>
     </g>
    </g>
   </g>
   <g>
    <g>
     <path class="fil2" d="M9594.51 6453.35c-12.36,167.85 98.47,317.79 210.16,443.68 111.68,125.91 235.94,257.15 260.08,423.71 42.79,295.19 -246.22,569.26 -186.61,861.52 31.95,156.64 160.2,282.45 183.05,440.67 22.11,153.02 -59.91,302.81 -161.57,419.32 -101.64,116.49 -225.51,213.62 -315.43,339.41 -94.72,132.51 -146.81,289.81 -214.81,437.82 -67.99,148.02 -159.52,294.91 -302.69,372.59 -215.25,116.78 -516.78,61.84 -681.83,242.75 -159.52,174.87 -109.28,494.32 -305.84,626.18l1515.48 -4607.65z"/>
    </g>
    <g>
     <path class="fil2" d="M7014.75 6710.02c-4.36,-152.2 136.43,-269.83 278.13,-325.59 141.7,-55.75 299.22,-76.79 425.54,-161.82 111.85,-75.28 187.03,-192.7 281.72,-288.69 232.26,-235.46 594.94,-333.08 914.02,-246.04 319.09,87.05 581.94,355.32 662.46,676.12 54.42,216.79 17.27,473.1 -153.62,617.16 -198.34,167.19 -492.36,130.06 -746.5,78.05 -254.12,-52.01 -541.75,-103.32 -753.92,45.92 -127.96,90 -201.31,236.39 -279.52,371.88 -78.21,135.48 -176.38,273.82 -324.3,324.74 -147.92,50.93 -348.78,-37.02 -354.54,-193.35l50.53 -898.39z"/>
    </g>
    <g>
     <g>
      <g>
       <g>
        <g>
         <g>
          <g>
           <g>
            <g>
             <g>
              <g>
               <g>
                <g>
                 <g>
                  <path class="fil9" d="M7615.04 6741.29c-131.48,14.2 -230.24,126.65 -227.34,258.87l151.97 3440.04c6.35,406.28 592.5,436.14 1027.48,426.03l0 -42.27c439.27,-10.22 461.19,15.03 466.67,-371.49 9.18,-645.78 8.4,-888.19 8.65,-884.51 0,0 554.87,-93.38 668.26,-817.86 56.39,-360.28 36.99,-950.76 5.51,-1433.38 -28.33,-434.41 -317.37,-966.85 -750.19,-920.09l-1351.03 344.66z"/>
                 </g>
                </g>
               </g>
              </g>
             </g>
            </g>
           </g>
           <g>
            <g>
             <g>
              <g>
               <g>
                <g>
                 <g>
                  <g>
                   <path class="fil2" d="M9579.02 7730.58c1.84,49.05 -38.17,91.05 -89.36,93.9 -51.09,2.85 -94.08,-34.47 -95.93,-83.52 -1.83,-49.05 38.17,-91.09 89.25,-93.96 51.19,-2.88 94.19,34.54 96.04,83.58z"/>
                  </g>
                 </g>
                </g>
               </g>
              </g>
             </g>
            </g>
            <g>
             <g>
              <g>
               <g>
                <g>
                 <g>
                  <g>
                   <g>
                    <path class="fil2" d="M9588.86 7624.18c-11.5,12.14 -81.99,-39.79 -181.93,-39.29 -99.84,-0.95 -173.07,50.63 -183.95,38.42 -5.34,-5.41 6.36,-27.29 38.24,-50.63 31.38,-23.22 84.96,-45.85 147.21,-45.73 62.26,0.2 114.68,23.01 144.84,46.41 30.78,23.51 41.25,45.39 35.59,50.83z"/>
                   </g>
                  </g>
                 </g>
                </g>
               </g>
              </g>
             </g>
            </g>
           </g>
           <g>
            <g>
             <g>
              <g>
               <g>
                <g>
                 <g>
                  <g>
                   <path class="fil2" d="M8583.93 7756.23c1.85,49.04 -38.16,91.04 -89.34,93.9 -51.08,2.85 -94.08,-34.47 -95.93,-83.53 -1.84,-49.04 38.17,-91.09 89.27,-93.96 51.17,-2.86 94.17,34.55 96,83.59z"/>
                  </g>
                 </g>
                </g>
               </g>
              </g>
             </g>
            </g>
            <g>
             <g>
              <g>
               <g>
                <g>
                 <g>
                  <g>
                   <g>
                    <path class="fil2" d="M8606.48 7645.01c-11.52,12.13 -82.08,-39.79 -181.95,-39.29 -99.84,-0.96 -173.09,50.63 -183.95,38.41 -5.33,-5.41 6.24,-27.28 38.24,-50.62 31.38,-23.23 84.94,-45.85 147.21,-45.75 62.25,0.21 114.67,23.01 144.83,46.41 30.7,23.51 41.22,45.39 35.6,50.84z"/>
                   </g>
                  </g>
                 </g>
                </g>
               </g>
              </g>
             </g>
            </g>
           </g>
           <g>
            <g>
             <g>
              <g>
               <g>
                <g>
                 <g>
                  <g>
                   <path class="fil2" d="M8970.82 8385.41c-0.47,-5.68 61.62,-16.55 162.28,-29.66 25.51,-2.69 49.66,-7.81 53.91,-25.22 5.97,-18.48 -4.76,-45.95 -17.19,-75.62 -24.15,-61.7 -49.39,-126.38 -75.92,-194.16 -105.42,-276.45 -181.79,-503.81 -170.62,-507.94 11.16,-4.16 105.7,216.55 211.1,493.01 25.37,68.19 49.66,133.17 72.75,195.34 9.72,28.98 26.4,61.85 13.46,100.14 -6.83,19.09 -25.54,32.96 -41.89,37.41 -16.33,5.02 -30.7,5.33 -43.33,6.12 -101.29,5.68 -164.15,6.27 -164.54,0.59z"/>
                  </g>
                 </g>
                </g>
               </g>
              </g>
             </g>
            </g>
           </g>
           <g>
            <g>
             <g>
              <g>
               <g>
                <g>
                 <g>
                  <path class="fil10" d="M9042.48 9567.95c0,0 -487.14,32.5 -970.48,-256.56 0,0 236.41,496.96 961.09,427.6l9.39 -171.03z"/>
                 </g>
                </g>
               </g>
              </g>
             </g>
            </g>
           </g>
           <g>
            <g>
             <g>
              <g>
               <g>
                <g>
                 <g>
                  <path class="fil10" d="M8929.09 8626.37c-36.05,-47.44 -99.07,-73.4 -161.59,-66.52 -43.37,4.76 -87.15,25.77 -113.4,61.15 -26.28,35.37 -31.69,85.53 -7.66,119.14 27.06,37.88 83.44,46.5 131.09,32.84 47.68,-13.66 88.65,-45.16 127.58,-76.53 10.76,-8.67 21.75,-17.74 28.47,-29.62 6.72,-11.86 8.11,-27.39 -0.23,-37.19l-4.27 -3.27z"/>
                 </g>
                </g>
               </g>
              </g>
             </g>
            </g>
           </g>
           <g>
            <g>
             <g>
              <g>
               <g>
                <g>
                 <g>
                  <g>
                   <path class="fil2" d="M8676.84 8455.18c16.25,-0.96 16.7,107.51 109.74,184.3 92.85,77.05 208.47,64.6 209.35,79.78 1.53,6.8 -25.71,21.13 -74.52,22.56 -47.87,1.76 -117.82,-13.48 -174.75,-60.46 -56.75,-47.09 -81.24,-110.04 -85.05,-154.54 -4.23,-45.34 7.81,-72.24 15.22,-71.64z"/>
                  </g>
                 </g>
                </g>
               </g>
              </g>
             </g>
            </g>
           </g>
          </g>
         </g>
        </g>
        <g>
         <g>
          <g>
           <g>
            <g>
             <g>
              <g>
               <path class="fil2" d="M8651.05 7469.93c-9.79,27.17 -109.62,14.54 -226.83,28.92 -117.54,12.04 -212.02,46.57 -227.62,22.23 -6.96,-11.64 9.45,-37.23 47.64,-63.61 37.83,-26.36 98.25,-51.45 168.63,-59.46 70.37,-7.86 134.85,3.18 177.61,20.46 43.07,17.25 64.79,38.56 60.58,51.46z"/>
              </g>
             </g>
            </g>
           </g>
          </g>
         </g>
        </g>
        <g>
         <g>
          <g>
           <g>
            <g>
             <g>
              <g>
               <path class="fil2" d="M9551.46 7335.02c-17.53,22.73 -86.44,-0.67 -169.23,-1.6 -82.77,-3.82 -152.87,15.59 -169.08,-8.11 -7.09,-11.51 3.91,-34.27 34.49,-55.83 30.15,-21.47 80.6,-39.09 137.5,-37.5 56.87,1.69 106.22,22.14 135.08,45.32 29.3,23.28 38.95,46.63 31.23,57.72z"/>
              </g>
             </g>
            </g>
           </g>
          </g>
         </g>
        </g>
       </g>
      </g>
     </g>
     <g>
      <g>
       <g>
        <path class="fil3" d="M7119.9 10204.3c-4.95,-182.47 -8.8,-370.93 64,-538.6 72.81,-167.66 243.58,-310.22 437.53,-298.45 136.48,8.28 255.66,87.91 379.44,144.66 207.06,94.91 444.2,128.63 669.06,95.13 94.43,-14.06 187.15,-39.65 282.99,-41.99 95.82,-2.33 199.36,23.01 261.87,92.65 75.41,84.01 71.11,204.94 62.69,313.24 -13.15,169.13 -26.65,340.06 -80.99,500.94 -54.35,160.9 -154.21,313.25 -306.64,401.46 -213.9,123.8 -487.95,102.39 -739.9,70.07 -236.16,-30.3 -478.22,-68.8 -684.41,-184.1 -206.18,-115.29 -370.83,-325.09 -356.55,-547.81l10.9 -7.19z"/>
       </g>
       <g>
        <g>
         <path class="fil6" d="M7119.9 10204.3c-4.95,-182.47 -8.8,-370.93 64,-538.6 72.81,-167.66 243.58,-310.22 437.53,-298.45 136.48,8.28 255.66,87.91 379.44,144.66 207.06,94.91 444.2,128.63 669.06,95.13 94.43,-14.06 187.15,-39.65 282.99,-41.99 95.82,-2.33 199.36,23.01 261.87,92.65 75.41,84.01 71.11,204.94 62.69,313.24 -13.15,169.13 -26.65,340.06 -80.99,500.94 -54.35,160.9 -154.21,313.25 -306.64,401.46 -213.9,123.8 -487.95,102.39 -739.9,70.07 -236.16,-30.3 -478.22,-68.8 -684.41,-184.1 -206.18,-115.29 -370.83,-325.09 -356.55,-547.81l10.9 -7.19z"/>
        </g>
       </g>
      </g>
      <g>
       <g>
        <path class="fil7" d="M7602.79 10811.62c-0.34,0.61 -5.19,-1.46 -14,-6.55 -8.34,-5.64 -20.51,-14.93 -32.25,-30.49 -24.41,-30.79 -42.09,-85.88 -49.34,-153.46 -14.39,-134.48 -36.4,-320.4 -38.21,-527.61 -0.74,-103.56 5.1,-202.34 16.79,-291.53 11.59,-89.17 34.25,-169.37 69.17,-229.07 34.39,-59.97 77.41,-98.14 109.96,-118.11 16.23,-10.31 30.09,-15.99 39.35,-19.79 9.56,-3.24 14.63,-4.58 14.91,-3.89 0.78,1.82 -19.17,8.97 -49.55,30.68 -30.17,21.49 -69.86,59.89 -101.29,118.55 -64.92,117.68 -76.87,308.78 -77.68,513.03 1.77,205.53 21.31,391.52 31.78,526.1 5.27,66.86 20.02,119.63 41,150.21 20.65,30.82 40.77,40.05 39.37,41.92z"/>
       </g>
      </g>
      <g>
       <g>
        <path class="fil7" d="M8092.25 10949.75c-1.47,-0.2 -0.28,-19.17 3.14,-53.27 4.19,-38.39 9.47,-86.7 15.77,-144.18 13.79,-121.67 32.69,-289.72 51.33,-475.55 18.6,-185.9 33.39,-354.38 43.99,-476.36 5.24,-57.59 9.64,-105.98 13.14,-144.45 3.42,-34.09 6.01,-52.9 7.5,-52.82 1.49,0.09 1.73,19.08 0.91,53.35 -0.79,34.27 -2.91,83.82 -6.28,145.01 -6.7,122.37 -19.1,291.28 -37.72,477.42 -18.67,186.08 -40,354.08 -57.7,475.34 -8.83,60.65 -16.57,109.63 -22.6,143.39 -5.99,33.76 -9.99,52.32 -11.48,52.11z"/>
       </g>
      </g>
      <g>
       <g>
        <path class="fil7" d="M8811.42 9614.62c0.01,-0.47 5.43,-1.19 15.39,1.06 9.9,2.1 24.45,8.29 38.69,21.82 29.46,26.56 51.08,81.63 59.88,148.47 10.92,67.08 13.52,148.41 7.2,237.63 -6.13,89.35 -19.61,186.23 -33.31,288.1 -14.31,101.85 -32.36,198.99 -59.63,284.6 -26.62,85.77 -62.72,159.2 -100.31,215.8 -37.5,56.85 -76.32,96.6 -105.04,121.25 -14.46,12.27 -26.13,21.23 -34.52,26.64 -8.28,5.55 -12.83,8.14 -13.27,7.54 -3.37,-3.32 69.21,-49.85 139.94,-163.71 35.17,-56.49 69.01,-128.87 94.12,-213.41 25.75,-84.4 43.01,-180.35 57.25,-281.75 13.68,-101.55 27.75,-198.45 34.87,-286.54 7.32,-88.14 6.32,-167.9 -2.46,-233.97 -6.87,-66.49 -25.18,-118.09 -50.71,-144.74 -25.22,-27.03 -49.11,-26.26 -48.09,-28.79z"/>
       </g>
      </g>
     </g>
    </g>
    <g>
     <path class="fil2" d="M9060.07 9575.05c-151.82,62.15 -149.25,310.42 -263.07,428.56 -149.03,154.69 -420.71,46.27 -615.64,136.48 -258.19,119.47 -255.64,507.47 -473.28,690.71 -133.68,112.55 -336.62,134.11 -441.83,273.64 -109.71,145.47 -40.93,388.16 128.78,454.46 53.56,-33.96 107.11,-67.92 160.67,-101.88 -46.22,74.54 -22.42,176.23 32.81,244.37 55.21,68.14 135.39,110.33 213.28,150.67 97.79,-10.99 151.44,-119.07 173.25,-215.03 21.79,-95.96 35.35,-204.69 111.93,-266.49 92.35,-74.53 233.83,-45.2 336.65,-104.46 203.14,-117.09 116.75,-466.91 297.5,-616.27 114.68,-94.75 286.79,-66.5 423.86,-124.33 197.74,-83.41 276.69,-321.7 297.36,-535.32 20.67,-213.62 9.1,-441 114.83,-627.77l-497.1 212.65z"/>
    </g>
    <g>
     <path class="fil2" d="M7109.35 9123.95c199.17,40.14 416.09,-21.06 564.9,-159.39 148.8,-138.33 225.67,-350.22 200.15,-551.78 -22.52,-177.87 -118.41,-358.84 -56.75,-527.17 81.54,-222.58 393.54,-291.07 476.34,-513.16 48.13,-129.09 4.92,-280.1 59.48,-406.61 51.29,-118.95 176.45,-187.48 298.28,-231.53 121.82,-44.04 252.45,-74.46 354.73,-153.96 102.28,-79.51 166.07,-229.55 100.1,-341.04 -540.28,64.74 -1072.78,194.13 -1582.53,384.51 -118.19,44.13 -242.35,97.2 -312.22,202.25 -73.95,111.15 -70.4,254.78 -64.18,388.14 30.35,650.27 60.69,1300.54 91.04,1950.83l-129.32 -41.09z"/>
    </g>
    <g>
     <g>
      <path class="fil2" d="M6718.95 9725.82c0,0 -3.43,-16.58 -2.6,-48.56 0.58,-31.84 6.7,-79.63 29.6,-136.25 22.14,-56.78 62.67,-121.03 122.37,-183.67 59.6,-63 140.99,-120.65 236,-172.57 94.59,-53.01 203.19,-100.87 312.25,-164.62 107.95,-63.26 217.98,-148.93 288.36,-271.18 35.01,-60.55 56.18,-131.05 56.1,-204.05 0.14,-73.29 -17.04,-147.67 -32.76,-223.75 -15.02,-75.81 -31.85,-156.63 -15.51,-239.05 8.25,-40.61 24.85,-80.67 51.31,-113.98 26.28,-33.39 60.09,-59.99 96.16,-81.49 72.67,-43.04 151.15,-67.72 222.96,-101.57 71.26,-33.46 138.21,-77.78 174.67,-144.48 37.19,-65.69 48.21,-141.87 51.22,-215.41 2.95,-74.02 -1.55,-147.2 -0.26,-219.08 1.17,-71.64 7.59,-143.22 31.89,-208.44 6.5,-16.09 11.94,-32.5 21.39,-46.97 8.51,-14.88 16.49,-29.94 27.19,-43.11 20.55,-26.82 44.93,-49.78 70.98,-69.08 106.26,-76.66 227.07,-100.91 330.81,-126.54 104.65,-24.73 198.63,-53.73 268.93,-101.75 70.71,-46.95 110.84,-112.87 128.55,-169.19 17.98,-57.18 12.15,-105.31 2.88,-134.98 -10.12,-29.84 -20.69,-43.31 -19.3,-44.1 0,0 11.7,12.6 23.44,42.7 10.85,29.89 18.33,79.52 1.05,138.81 -16.97,58.35 -57.17,127.09 -129.77,176.76 -71.67,50.37 -167.42,80.88 -272.08,106.61 -103.81,26.47 -222.4,51.84 -323.74,126.06 -24.82,18.63 -47.78,40.54 -67.01,65.95 -10.03,12.43 -17.43,26.75 -25.41,40.82 -8.89,13.62 -13.91,29.32 -20.02,44.61 -22.81,62.05 -28.95,131.42 -29.8,202.13 -1.03,70.93 3.72,144.1 0.96,219.57 -2.9,74.88 -13.74,154.64 -53.51,225.25 -39.12,71.83 -111.25,119.33 -183.89,153.36 -73.3,34.52 -151.52,59.37 -221.01,100.67 -34.54,20.6 -66.01,45.51 -90.2,76.19 -24.35,30.6 -39.54,67.28 -47.27,104.96 -15.43,76.37 0.23,155.09 15.18,230.53 15.46,75.8 32.96,151.46 32.66,228.13 -0.09,76.71 -22.8,151.1 -59.44,213.79 -73.67,126.69 -186.81,213.26 -296.64,276.82 -110.74,63.81 -219.59,110.77 -313.93,162.55 -94.85,50.76 -175.26,106.45 -234.69,167.59 -59.51,60.81 -100.35,123.2 -123.27,178.44 -23.66,55.12 -31.06,101.84 -33.02,133.26 -2.23,31.53 -0.41,48.28 -1.76,48.34z"/>
     </g>
    </g>
    <g>
     <g>
      <path class="fil2" d="M8829.87 10222.72c0.48,-3.18 50.17,12.41 141.8,10.75 90.4,-1.19 226.42,-28.4 360.41,-122.51 65.89,-47.16 131.66,-110.49 178.7,-193.73 49.07,-82.25 72.69,-183.26 90.98,-290.14 19.4,-106.18 35.39,-223.31 95.62,-329.77 60.89,-107.81 169.86,-176.45 260.98,-259.42 94.47,-81.09 152.33,-193.45 168.67,-308.73 7.84,-57.52 6.55,-115.27 -4,-170.08 -11.06,-54.8 -31.29,-105.92 -57.98,-152.63 -53.02,-93.15 -120.25,-176.01 -150.75,-270.92 -31.83,-93.43 -35.92,-186.91 -28.41,-269.32 17.84,-165.72 68.47,-291.58 101.65,-377.06 17.12,-42.81 31.58,-75.55 41.54,-97.67 10.04,-22.1 15.64,-33.55 16.32,-33.26 0.69,0.3 -3.57,12.32 -12.3,34.93 -9.29,24.39 -21.85,57.41 -37.7,99.02 -30.72,86.1 -78.72,212.36 -94.25,375.35 -6.41,81.03 -1.4,171.99 30.11,262.09 29.93,91.15 96.14,171.81 151.16,267.03 27.59,47.63 49.25,101.41 60.89,158.41 11.23,57.09 12.75,117.2 4.73,177.1 -9.05,59.67 -27.15,119.44 -56.9,174.5 -29.28,55.36 -70.93,104.88 -118.16,147.2 -93.58,84.77 -199.64,152 -257.26,254.08 -57.79,101.33 -74.47,216.18 -94.33,322.7 -18.84,106.92 -43.65,210.9 -95.11,295.64 -49.26,85.46 -117.42,149.76 -185.42,197.2 -138.21,94.63 -277.35,119.75 -369.08,118.4 -23.22,0.59 -43.72,-0.96 -61.43,-3.35 -17.78,-1.47 -32.67,-3.73 -44.5,-6.83 -23.81,-5.2 -36.15,-8.27 -35.98,-8.99z"/>
     </g>
    </g>
   </g>
   <g>
    <g>
     <g>
      <path class="fil8" d="M11335.24 14642.15c-332.16,0 -653.97,-168.74 -841.13,-474.68l-5148.08 -8417.02c-26.13,-42.74 -12.7,-98.59 30.04,-124.72 42.78,-26.13 98.58,-12.66 124.72,30.04l5148.17 8417.1c229.94,376 709.49,498.51 1091.35,278.48 193.36,-111.25 328.97,-291.86 381.76,-508.61 52.89,-216.66 15.59,-439.43 -104.87,-627.2l-156.51 -243.77c-27.02,-42.16 -14.8,-98.22 27.36,-125.34 42.16,-27.19 98.24,-14.87 125.33,27.38l156.52 243.77c147.57,229.93 193.19,502.76 128.43,768.14 -64.66,265.46 -230.73,486.65 -467.5,622.96 -157.14,90.34 -327.73,133.48 -495.59,133.48z"/>
     </g>
    </g>
    <g>
     <g>
      <path class="fil3" d="M11820.47 3593.48c0,0 -1806.61,109.19 -2687.23,1899.32 0,0 -1991.75,-164.3 -2604.51,1465.35 0,0 -2305.3,-261.85 -2800.14,1864.25 0,0 -1845.63,-67.89 -1952.78,1613.09 0,0 -1245.21,48.35 -1328.54,1314.13 0,0 -1046.06,-5158.07 2807.69,-7866.71 4073.4,-2863.02 8565.51,-289.44 8565.51,-289.44z"/>
     </g>
    </g>
    <g>
     <g>
      <path class="fil9" d="M9587.71 14614.66l-217.01 -963.62 234.29 -97.1c34.19,-24.78 152.15,-114.64 314.04,-286.28 50.06,-53.1 90.15,-114.76 119.57,-181.56 35.66,-80.98 78.65,-190.55 83.55,-257.8 6.06,-83.27 110.19,-115.82 150.43,-51.56 40.23,64.28 29.06,294.11 -100.85,529.43 -87.68,158.83 62.53,138.37 213.7,91.32 112.11,-34.87 232.43,21.54 279.52,129.09l138.54 316.45c88.11,201.28 -11.76,435.23 -218.05,510.91 -67.68,24.83 -117.09,42.94 -117.1,42.93l0.05 0.06 -880.67 217.74z"/>
     </g>
    </g>
    <g>
     <g>
      <path class="fil7" d="M1519.64 7770.96c0.07,4.31 -70.3,3.08 -181.43,21.12 -55.59,8.59 -120.83,24.31 -191.59,46.73 -70.36,23.71 -146,54.85 -221.48,95.46 -75.05,41.48 -142.22,88.19 -200.26,134.51 -57.19,47.35 -105.73,93.68 -143.08,135.76 -75.34,83.64 -112.41,143.45 -116.01,141.05 -1.26,-0.8 7.4,-16.02 24.24,-43.01 8.23,-13.63 18.82,-29.97 32.72,-47.81 13.68,-17.97 28.33,-39.28 47.55,-60.33 36.33,-43.91 84.48,-92.1 141.89,-141.06 58.25,-47.89 126.26,-95.95 202.59,-138.12 76.75,-41.29 153.96,-72.43 225.77,-95.44 72.24,-21.74 138.82,-36.12 195.41,-42.87 28.11,-4.76 53.95,-5.53 76.47,-7.29 22.52,-2.01 41.99,-2.08 57.91,-1.6 31.82,0.46 49.31,1.43 49.29,2.92z"/>
     </g>
    </g>
    <g>
     <g>
      <path class="fil7" d="M3146.47 6885.53c-0.78,1.8 -29.33,-10 -81.9,-27.82 -52.49,-17.99 -130.36,-39.16 -228.5,-52.54 -98.01,-13.6 -216.96,-16.23 -346.33,3.17 -129.18,19.11 -268.29,62.65 -400.16,135.7 -131.06,74.61 -240.64,170.75 -324.21,271.13 -83.91,100.39 -143.56,203.33 -182.96,294.1 -39.65,90.77 -62.08,168.27 -74.03,222.46 -12.16,54.15 -16.92,84.67 -18.88,84.4 -0.73,-0.09 -0.23,-7.8 1.39,-22.42 2.1,-14.53 3.32,-36.36 9.23,-63.71 9.5,-55.09 29.87,-134.08 68.23,-226.79 38.09,-92.7 97.22,-198.04 181.66,-300.8 84.1,-102.73 195.32,-201.2 328.97,-277.26 134.46,-74.52 276.38,-118.22 407.85,-136.56 131.67,-18.63 252.39,-14.31 351.38,1.42 99.13,15.5 177.17,39.19 229.18,59.76 26.43,9.19 45.71,19.49 59.22,25.27 13.33,6.22 20.16,9.8 19.86,10.49z"/>
     </g>
    </g>
    <g>
     <g>
      <path class="fil7" d="M5243.68 5198.52c-0.72,2.46 -41.71,-11.09 -117.49,-25.88 -75.59,-15.73 -188.11,-25.44 -325.56,-13.96 -68.79,5.47 -143.31,18.94 -222.24,37.49 -78.07,21.72 -161.5,46.29 -244.67,83.98 -83.64,36.15 -169.07,80.17 -251.73,135.05 -82.91,54.21 -165.18,116.63 -239.73,190.77 -150.64,147.49 -269.21,311.66 -365.04,467.2 -95.25,156.23 -169.55,303.81 -228.52,429.2 -58.98,125.44 -103.88,228.34 -135.12,299.37 -15.1,33.92 -27.17,61.07 -36.33,81.65 -8.51,18.6 -13.3,28.21 -13.99,27.93 -0.7,-0.28 2.76,-10.47 9.96,-29.6 8.21,-20.98 19.06,-48.66 32.6,-83.25 28.87,-72.05 71.65,-175.97 129.01,-302.54 57.33,-126.5 130.46,-275.37 225.37,-433.15 95.5,-157.11 214.53,-323.06 366.94,-472.3 75.71,-75.26 159.17,-138.39 243.32,-193.06 83.88,-55.34 170.57,-99.55 255.43,-135.61 84.39,-37.62 169.04,-61.88 248.22,-83.06 80.05,-18.04 155.62,-30.77 225.29,-35.33 139.25,-9.66 252.81,2.56 328.49,20.97 38.49,6.36 66.66,18.55 86.42,23.66 19.53,6.17 29.64,9.76 29.4,10.47z"/>
     </g>
    </g>
    <g>
     <g>
      <path class="fil7" d="M7245.28 3961.94c-0.71,2.03 -35.73,-10.12 -100.17,-26.74 -64.37,-16.77 -159.76,-33.86 -278.53,-37.37 -236.08,-9.8 -572.56,59.34 -874.23,263.36 -74.93,50.96 -144.16,106.37 -207.33,163.94 -62.85,57.99 -118.91,118.66 -169.62,178.69 -100.29,121.17 -176.79,241.23 -233.77,345.77 -57.17,104.52 -97.13,192.54 -123.35,253.88 -13.64,30.46 -22.82,54.72 -30.03,70.78 -6.97,16.16 -10.97,24.52 -11.68,24.27 -0.69,-0.26 1.94,-9.13 7.6,-25.81 5.9,-16.59 13.82,-41.38 26.32,-72.43 23.89,-62.5 61.87,-151.83 117.67,-257.96 55.61,-106.12 131.38,-228.09 231.87,-351.22 50.8,-61.01 107.18,-122.67 170.6,-181.55 63.73,-58.48 133.71,-114.69 209.6,-166.31 305.94,-206.95 648.15,-274.6 886.87,-260.71 120.11,5.51 216.05,25.14 280.2,44.53 32.52,8.21 56.46,18.96 73.17,24.48 16.54,6.14 25.07,9.69 24.81,10.39z"/>
     </g>
    </g>
    <g>
     <g>
      <path class="fil7" d="M9337.07 3001.99c-0.71,1.83 -33.01,-10.15 -92.28,-28.27 -59.18,-18.3 -146.57,-39.92 -256.33,-53.79 -109.64,-14.08 -242.27,-17.21 -387.15,1.87 -144.73,18.83 -301.22,62.22 -452.86,135.61 -150.94,74.98 -281.1,172.14 -384.61,275.05 -103.84,102.88 -182.56,209.66 -238.56,304.97 -56.25,95.25 -92.65,177.57 -114.43,235.56 -21.96,57.96 -32.28,90.82 -34.15,90.26 -0.72,-0.2 1.18,-8.6 5.46,-24.43 4.73,-15.67 9.93,-39.45 20.78,-68.69 19.46,-59.22 54,-143.19 109.12,-240.42 54.88,-97.28 133.26,-206.36 237.7,-311.39 104.11,-105.06 235.86,-204.23 389.16,-280.36 154.01,-74.55 313.06,-117.97 459.84,-135.96 146.97,-18.24 281.2,-13.44 391.7,2.73 110.65,15.96 198.18,40.07 256.92,60.94 29.76,9.35 51.74,19.79 67.04,25.64 15.14,6.31 22.94,9.96 22.66,10.65z"/>
     </g>
    </g>
    <g>
     <g>
      <path class="fil7" d="M10033.04 2814.86c-0.1,3.64 -29.94,3.56 -76.42,12.08 -46.42,8.31 -109.28,28.01 -170.66,65.4 -61.22,37.7 -107.31,84.75 -135.81,122.33 -28.71,37.53 -42.18,64.15 -45.48,62.59 -2.15,-0.86 6.48,-30.17 32.98,-71.44 26.2,-41.19 72.88,-92.51 136.99,-131.95 64.24,-39.18 131.16,-57.45 179.76,-62.09 48.8,-4.85 78.84,0.78 78.63,3.08z"/>
     </g>
    </g>
    <g>
     <g>
      <path class="fil7" d="M1610.33 9481.94c-0.19,5.16 -89.6,-5.23 -231.82,12.45 -17.82,2.53 -36.36,5.16 -55.59,7.88 -19.31,2.91 -38.96,8.33 -59.54,12.59 -41.41,7.66 -84.07,21.99 -129.31,35.53 -89.22,31.03 -184.54,73.33 -277.86,129.92 -92.53,57.91 -173.21,124.02 -241.05,189.77 -32.47,34.32 -64.44,65.98 -89.92,99.52 -13.05,16.46 -26.74,31.58 -38.01,47.51 -11.09,15.95 -21.79,31.33 -32.06,46.1 -79.76,119.07 -110.68,203.59 -115.38,201.43 -1.38,-0.55 6.51,-21.38 22.04,-58.75 7.4,-18.87 17.31,-41.56 31.61,-66.55 13.93,-25.14 27.99,-54.93 48.95,-84.56 10.04,-15.23 20.48,-31.08 31.33,-47.52 11.08,-16.4 24.59,-31.99 37.55,-48.95 25.25,-34.51 57.18,-67.12 89.77,-102.35 68.1,-67.56 149.76,-135.28 243.83,-194.11 94.83,-57.52 192.01,-99.99 282.96,-130.42 46.14,-13.26 89.62,-27.12 131.8,-34.14 20.95,-3.93 40.96,-9 60.6,-11.51 19.55,-2.29 38.41,-4.5 56.52,-6.61 35.9,-5.4 68.83,-4.56 97.54,-5.68 28.75,-1.53 53.48,-0.18 73.66,1.69 40.36,2.95 62.51,5.27 62.38,6.75z"/>
     </g>
    </g>
    <g>
     <g>
      <path class="fil7" d="M3527.25 8264.16c-0.16,0.72 -9.25,-0.41 -26.37,-3.23 -17.19,-2.36 -42.07,-8.39 -74.74,-12.3 -64.9,-10.13 -159.82,-19.73 -277.13,-18.49 -117.22,0.98 -257,16.06 -406.98,55.11 -149.87,38.77 -309.13,103.8 -460.71,198.42 -150.7,96.12 -277.98,211.94 -377.49,330.54 -99.82,118.59 -173.58,238.27 -224.92,343.66 -51.6,105.35 -83.78,195.16 -102.56,258.1 -10.52,31.18 -15.79,56.21 -21.07,72.74 -4.82,16.66 -7.7,25.36 -8.43,25.2 -0.73,-0.16 0.73,-9.17 4.18,-26.2 3.91,-16.9 7.88,-42.37 17.21,-74.07 16.39,-63.98 46.6,-155.24 96.88,-262.44 50.06,-107.2 123.24,-229.08 223.41,-349.81 99.84,-120.72 228.41,-238.59 381.22,-336.04 153.68,-95.95 315.37,-161.26 467.3,-199.42 152.06,-38.45 293.56,-52.06 411.87,-51.11 118.4,0.74 213.79,12.76 278.6,25.49 32.63,5.23 57.33,12.61 74.27,16.36 16.88,4.21 25.63,6.76 25.46,7.5z"/>
     </g>
    </g>
    <g>
     <g>
      <path class="fil7" d="M6192.25 6445.94c-0.15,0.73 -12.87,-0.92 -36.87,-4.73 -24.11,-3.24 -59.14,-11.05 -104.95,-16.38 -91.17,-12.91 -224.64,-25.68 -388.97,-16.82 -81.97,5.6 -171.74,15.51 -266.01,36.96 -94.59,19.73 -193.8,49.6 -295.01,89.28 -202.93,77.98 -414.42,193.93 -624.74,330.65 -103.71,70.63 -200.51,146.15 -288.24,225.67 -86.66,80.54 -167.19,161.82 -236.71,245.58 -141.35,165.65 -245.23,333.44 -321.81,478.95 -76.01,146.15 -124.5,270.81 -154.66,357.9 -15.77,43.34 -25.01,77.99 -33.02,100.96 -7.54,23.11 -11.87,35.17 -12.59,34.98 -0.72,-0.19 2.19,-12.63 8.39,-36.17 6.67,-23.39 14.63,-58.52 29.23,-102.42 27.79,-88.19 74.33,-214.33 149.04,-362.25 75.3,-147.29 178.57,-317.16 320.17,-484.81 69.63,-84.74 150.49,-167 237.7,-248.42 88.27,-80.37 185.8,-156.7 290.45,-227.95 211.91,-137.74 424.28,-253.49 629.67,-331.29 102.29,-39.53 202.71,-69.06 298.42,-88.22 95.4,-20.9 186.16,-30.04 268.9,-34.69 165.88,-6.97 299.93,8.27 391.05,23.78 45.81,6.63 80.67,15.8 104.54,20.42 23.79,5.2 36.19,8.27 36.04,9.01z"/>
     </g>
    </g>
    <g>
     <g>
      <path class="fil7" d="M8805.04 5072.6c-0.16,0.73 -11.29,-0.73 -32.3,-4.18 -21.09,-2.98 -51.72,-9.93 -91.79,-15.06 -79.78,-12.06 -196.21,-24.64 -340.38,-25.05 -143.97,0.07 -316.19,12.69 -501.99,55.01 -93.1,19.9 -189.17,48.26 -286.44,83.67 -97.54,34.78 -195.54,79.05 -292.05,131.29 -193.26,104.85 -366.28,225.59 -508,352.57 -141.31,127.54 -251.17,261.12 -327.71,383.04 -77.1,121.69 -126.37,228.09 -156.5,302.87 -16.2,36.99 -25.55,66.99 -33.74,86.65 -7.7,19.84 -12.08,30.18 -12.79,29.94 -0.72,-0.22 2.29,-11.01 8.65,-31.35 6.88,-20.16 14.97,-50.7 30.03,-88.33 27.86,-76.05 75.28,-184.15 151.4,-307.96 75.53,-124.02 185.34,-260.1 327.27,-389.67 142.44,-129.08 316.36,-251.17 511.09,-356.82 97.49,-52.77 196.53,-97.33 295.1,-132.18 98.3,-35.48 195.38,-63.68 289.41,-83.22 187.67,-41.62 361.44,-52.74 506.37,-50.84 145.14,2.38 261.96,17.39 341.64,32.04 40.01,6.44 70.46,14.73 91.31,19.1 20.76,4.84 31.58,7.73 31.42,8.46z"/>
     </g>
    </g>
    <g>
     <g>
      <path class="fil7" d="M10734.13 3501.93c-0.02,0.74 -9.64,1.38 -27.9,1.89 -18.24,0.96 -45.15,-0.11 -79.71,2.2 -69.14,2.4 -169.19,10.72 -290.67,33.27 -241.76,43.42 -573.5,160.59 -866.8,399.4 -293.34,238.98 -475.23,540.2 -566.68,768.17 -46.66,114.4 -75.03,210.68 -91.39,277.89 -9.25,33.39 -13.65,59.95 -18.28,77.61 -4.19,17.77 -6.76,27.06 -7.5,26.93 -0.74,-0.13 0.39,-9.66 3.21,-27.73 3.25,-17.97 6.34,-44.89 14.37,-78.71 13.89,-68.09 40.18,-165.66 85.39,-281.71 88.48,-231.19 270.3,-537.38 567.2,-779.24 296.84,-241.7 633.45,-357.82 877.76,-397.69 122.79,-20.78 223.67,-26.8 293.18,-26.62 34.76,-1.01 61.74,1.42 80.01,1.86 18.27,0.89 27.84,1.73 27.81,2.47z"/>
     </g>
    </g>
    <g>
     <g>
      <path class="fil7" d="M11285.11 3361.69c-0.79,3.51 -28.74,-1.81 -73.8,-2.35 -44.97,-0.71 -107.36,5.96 -171.85,29.09 -64.39,23.44 -116.64,58.21 -150.77,87.49 -34.32,29.2 -52.4,51.16 -55.26,48.97 -1.94,-1.32 11.97,-26.94 44.89,-60.23 32.62,-33.27 86.27,-72.04 153.79,-96.59 67.6,-24.28 133.64,-28.74 179.99,-24.02 46.58,4.57 73.68,15.38 73.02,17.64z"/>
     </g>
    </g>
    <g>
     <g>
      <path class="fil7" d="M1827.65 5928.37c-2.29,2.95 -24.41,-13.82 -63.78,-32.43 -39.21,-18.6 -97.84,-35.68 -163.95,-32.29 -66.07,3.25 -123.69,24.08 -163.61,41.74 -39.97,18.11 -63.6,32.42 -65.54,29.52 -1.44,-2.01 19.25,-20.95 58.7,-43.21 39.3,-21.73 99.09,-46.18 169.43,-49.67 70.4,-3.69 132.98,17.29 172,40.31 39.42,23.11 58.25,44.39 56.76,46.03z"/>
     </g>
    </g>
    <g>
     <g>
      <path class="fil7" d="M2963.15 5484.43c-1.85,4.43 -72.67,-36.89 -199.27,-63.33 -124.87,-27.01 -310.63,-30.83 -492.73,44.91 -181.98,76.19 -309.91,210.96 -378.53,318.73 -70.23,108.6 -90.67,187.98 -95.11,186.18 -1.16,-0.34 3.15,-20.14 15.08,-54.71 11.82,-34.6 33.09,-83.47 67.08,-139.64 66.49,-111.81 195.94,-252.17 383.15,-330.55 187.32,-77.92 378.12,-71.24 504.36,-39.88 63.84,15.34 113.55,34.6 146.46,50.53 32.97,15.84 50.07,26.69 49.51,27.75z"/>
     </g>
    </g>
    <g>
     <g>
      <path class="fil7" d="M4365.12 4365.46c0.02,1.83 -27.77,3.03 -77.66,7.37 -49.92,4.07 -121.92,13.35 -209.45,31.68 -87.41,18.57 -190.5,46.71 -300.14,90.73 -109.56,43.57 -226.72,101.85 -336.69,181.8 -221.36,160.5 -367.43,367.69 -448.88,525.63 -40.95,79.43 -68.41,146.66 -85.17,193.84 -17.1,47.08 -25.5,73.59 -27.24,73.09 -0.72,-0.19 0.58,-7.04 3.74,-19.92 3.46,-12.77 7.47,-32.01 15.53,-55.87 14.39,-48.28 39.88,-116.93 79.5,-198.06 78.73,-161.29 224.87,-373.14 449.8,-536.22 111.93,-81.37 230.92,-139.81 342.13,-182.86 111.29,-43.49 215.85,-70.35 304.42,-87.17 88.69,-16.56 161.53,-23.58 211.9,-25.07 25.14,-1.63 44.77,-0.47 58,-0.51 13.26,0.3 20.21,0.8 20.21,1.56z"/>
     </g>
    </g>
    <g>
     <g>
      <path class="fil7" d="M5478.86 3350.9c0.92,4.94 -88.61,15.17 -224.36,62.39 -33.81,12.11 -70.77,25.46 -108.78,43.91 -39.04,16.1 -78.23,38.45 -119.96,60.91 -81.64,48.07 -167.48,107.8 -248.83,181.04 -80.56,74.14 -148.4,153.72 -203.99,230.49 -26.05,39.57 -52.28,76.33 -71.83,113.76 -10.16,18.47 -20.98,35.8 -29.63,53.36 -8.34,17.61 -16.38,34.59 -24.1,50.91 -59.46,130.83 -77.41,219.16 -82.27,217.8 -1.46,-0.34 3.12,-22.19 12.68,-61.61 4.39,-19.83 10.74,-43.84 20.82,-70.86 9.68,-27.13 19.01,-58.78 34.78,-91.55 7.41,-16.71 15.13,-34.1 23.13,-52.15 8.38,-17.97 18.95,-35.74 28.91,-54.65 19.16,-38.33 45.15,-75.99 71.16,-116.46 55.48,-78.52 123.96,-159.79 205.77,-235.07 82.61,-74.37 170.18,-134.57 253.56,-182.37 42.6,-22.32 82.66,-44.36 122.55,-59.99 38.84,-17.97 76.59,-30.66 111.12,-41.98 34.06,-12.75 66.48,-19.01 94.34,-26.32 27.81,-7.62 52.31,-11.69 72.44,-14.38 40.11,-6.06 62.29,-8.67 62.49,-7.2z"/>
     </g>
    </g>
    <g>
     <g>
      <path class="fil7" d="M5950.13 2853.98c1.12,3.49 -33.07,15.3 -83.98,42.33 -50.91,26.84 -117.46,71.58 -178.32,134.77 -60.63,63.46 -102.55,131.82 -127.25,183.81 -24.91,51.98 -35.27,86.64 -38.81,85.65 -2.24,-0.5 2.91,-36.9 24.81,-91.86 21.65,-54.81 62.96,-127.02 125.62,-192.58 62.88,-65.32 133.3,-109.6 187.18,-133.51 54,-24.16 90.16,-30.82 90.75,-28.6z"/>
     </g>
    </g>
    <g>
     <g>
      <g>
       <path class="fil2" d="M3213.9 3909.61c0.99,1.28 -16.93,18.29 -51.89,49.44 -34.87,31.25 -88.08,75.12 -150.4,138.51 -127.64,123.04 -303.23,311.96 -488.26,569.87 -185.03,257.45 -381.64,582.06 -554.56,964.04 -84.2,191.88 -164.31,397 -231.06,614.96 -64.78,218.43 -118.07,448.6 -150.54,687.85 -121.79,962.84 -50.14,1845.71 15.43,2476.5 33.82,316.19 67.28,571.52 90.4,747.95 10.83,84.78 19.47,152.43 25.96,203.32 5.5,46.54 7.61,71.12 6,71.37 -1.6,0.25 -6.86,-23.84 -15.4,-69.94 -8.71,-50.57 -20.26,-117.81 -34.74,-202.07 -28.74,-175.73 -67.28,-430.57 -105.4,-746.89 -74.13,-630.83 -151.65,-1516.98 -29.09,-2486.3 32.84,-242.21 87.1,-474.93 153.12,-695.28 68,-219.89 149.68,-426.44 235.66,-619.39 176.49,-384.03 377.52,-709.17 567.28,-965.85 189.75,-257.12 370.38,-443.93 502.62,-563.52 64.6,-61.67 120.03,-103.52 156.96,-132.5 37.04,-28.86 56.92,-43.37 57.92,-42.07z"/>
      </g>
     </g>
    </g>
    <g>
     <g>
      <g>
       <path class="fil2" d="M3213.9 3909.61c4.17,3.25 -43.92,56.99 -104.79,169.76 -60.89,112.41 -126.68,288.16 -157.64,515.52 -33.16,226.93 -33.46,501.3 -11.24,804.97 19.06,303.99 49.47,637.62 97.72,985.62 95.26,696.78 254.43,1315.05 396.25,1753.11 70.32,219.36 134.17,394.63 178.77,515.6 20.97,56.46 38.08,102.52 51.71,139.25 11.34,32.05 16.57,49.2 15.08,49.84 -1.51,0.62 -9.68,-15.3 -23.88,-46.2 -15.81,-35.89 -35.67,-80.94 -60,-136.12 -49.96,-119.12 -118.77,-293.11 -193.41,-511.9 -150.44,-436.83 -315.65,-1057.26 -411.31,-1757.05 -48.46,-349.49 -77.65,-684.53 -94.38,-989.59 -19.9,-304.68 -16.27,-582.99 21.67,-812.58 35.67,-230.22 107.74,-408.04 174.62,-519.46 33.36,-55.78 62.68,-97.08 85.41,-122.62 22.06,-26.1 34.18,-39.22 35.42,-38.16z"/>
      </g>
     </g>
    </g>
    <g>
     <g>
      <g>
       <path class="fil2" d="M3377.61 3795.49c-0.75,-1.45 18.95,-13.07 57.19,-33.89 38.5,-20.29 94.49,-52.02 169.06,-87.9 148.9,-71.79 368.47,-170.6 653.78,-253.19 284.24,-83.64 638.89,-140.65 1032.16,-120.21 393.29,19.01 818.17,116.28 1245.04,265 858.54,299.99 1536.47,789.25 1976.38,1181.46 221.14,197.06 387.41,370 497.81,493.17 55.97,60.9 96.13,111.15 124.36,144.26 27.8,33.52 41.78,51.62 40.55,52.68 -1.25,1.06 -17.63,-14.94 -47.69,-46.39 -30.5,-31.03 -72.81,-79.21 -130.69,-138.03 -114.24,-118.99 -283.49,-287.69 -506.34,-480.55 -443.47,-383.96 -1119.22,-864.79 -1970.02,-1162.02 -423.61,-147.6 -843.98,-245.04 -1231.73,-266.13 -387.87,-22.5 -738.04,30.17 -1020.89,108.95 -283.76,77.7 -504.17,171.22 -654.94,237.67 -75.49,33.2 -132.68,62.21 -172.52,79.73 -39.58,18.03 -60.75,26.83 -61.5,25.4z"/>
      </g>
     </g>
    </g>
    <g>
     <g>
      <g>
       <path class="fil2" d="M11246.77 3680.42c-0.38,0.72 -7.19,-1.7 -20.11,-7.1 -15.4,-6.79 -34.06,-15 -56.84,-25.03 -53.08,-24.59 -125.21,-58.02 -216.24,-100.19 -47.14,-22.23 -99.07,-46.71 -155.64,-73.38 -58.69,-23.44 -122.14,-48.8 -190.12,-75.95 -136.42,-54.37 -290.24,-120.11 -467.07,-174.47 -87.72,-29.31 -179.5,-59.98 -275.06,-91.91 -96.76,-28.27 -198.47,-54.16 -303.17,-82.98 -208.25,-62.61 -437.29,-102.43 -675.83,-154.32 -481.06,-83.69 -1015.84,-143.53 -1579.65,-149.03 -564,1.19 -1099.29,58.32 -1579.56,145.76 -237.77,54.93 -466.47,96.88 -672.68,165.88 -103.75,31.84 -205.2,58.97 -300.53,91.48 -94.12,35.77 -184.54,70.13 -270.94,102.95 -175,60.16 -323.53,137.33 -456.8,198.8 -66.27,31.52 -128.73,59.39 -184.92,87.53 -54.29,30.99 -104.13,59.44 -149.37,85.25 -87.41,49.14 -156.7,88.08 -207.68,116.73 -21.92,11.77 -39.88,21.42 -54.69,29.38 -12.48,6.4 -19.09,9.35 -19.53,8.66 -0.45,-0.68 5.28,-4.99 16.91,-12.73 14.17,-9.04 31.31,-20 52.25,-33.39 49.98,-30.58 117.91,-72.16 203.62,-124.61 44.79,-27.01 94.14,-56.75 147.89,-89.16 55.79,-29.4 117.88,-58.57 183.88,-91.36 132.71,-64 281.04,-143.65 456.11,-206.12 86.52,-33.92 177.05,-69.4 271.31,-106.36 95.53,-33.6 197.25,-61.76 301.33,-94.59 206.94,-70.98 436.54,-114.69 675.5,-171.05 482.56,-90.33 1020.96,-149.1 1588.09,-150.29 566.91,5.53 1104.48,66.99 1587.45,153.48 239.51,53.29 469.29,94.8 678.04,159.3 104.95,29.76 206.86,56.64 303.76,85.96 95.62,33.07 187.46,64.83 275.23,95.18 176.83,56.61 330.39,124.78 466.29,181.65 67.63,28.52 130.76,55.14 189.13,79.77 56.11,28.11 107.61,53.91 154.34,77.32 89.53,45.61 160.48,81.75 212.7,108.33 21.94,11.72 39.9,21.31 54.73,29.22 12.2,6.82 18.27,10.66 17.88,11.38z"/>
      </g>
     </g>
    </g>
    <g>
     <g>
      <g>
       <path class="fil2" d="M3377.61 3795.49c0.65,-1.5 15.6,3.48 43.49,14.34 27.75,11.18 69.07,26.92 120.87,50.38 104.12,45.66 252.93,116.82 429.27,218.97 176.22,102.08 378.05,239 584.19,412.85 207.11,172.83 416.56,383.11 624.79,613.2 415.94,462.01 743.21,920.08 976.38,1252.2 116.2,166.58 208.21,302.69 270.95,397.33 28.45,43.85 51.95,80.05 71.19,109.72 15.84,25.38 23.51,39.16 22.18,40.09 -1.34,0.93 -11.63,-11.02 -29.99,-34.65 -21.2,-28.27 -47.1,-62.8 -78.45,-104.61 -71.09,-97.58 -166.75,-228.87 -283.06,-388.48 -239.93,-326.87 -570.58,-780.49 -984.28,-1239.95 -207.22,-229.01 -414.28,-438.67 -617.87,-611.67 -202.68,-174.05 -400.43,-312.36 -573.16,-417.36 -172.81,-105.03 -318.59,-180.39 -419.98,-231 -101.5,-50.47 -157.98,-78.07 -156.52,-81.36z"/>
      </g>
     </g>
    </g>
   </g>
  </g>
 </g>
</svg>
